<svg id="Layer_2" data-name="Layer 2" xmlns="http://www.w3.org/2000/svg" width="48" height="48" viewBox="0 0 48 48">
  <g id="invisible_box" data-name="invisible box">
    <rect id="Rectangle_92" data-name="Rectangle 92" width="48" height="48" fill="none"/>
  </g>
  <g id="icons_Q2" data-name="icons Q2" transform="translate(4.395 3)">
    <path id="Path_14" data-name="Path 14" d="M43,8.8a2.3,2.3,0,0,1-.6,1.6A1.7,1.7,0,0,1,41,11H7.1A2.1,2.1,0,0,1,5,9.2a2.3,2.3,0,0,1,.6-1.6A1.7,1.7,0,0,1,7,7H17V5a2,2,0,0,1,2-2H29a2,2,0,0,1,2,2V7h9.9A2.1,2.1,0,0,1,43,8.8Z" transform="translate(-4.999 -3)" fill="#f2f2f2"/>
    <path id="Path_15" data-name="Path 15" d="M11.2,15h0a2,2,0,0,0-2,2.2l2.6,26a2,2,0,0,0,2,1.8H34.2a2,2,0,0,0,2-1.8l2.6-26a2,2,0,0,0-2-2.2H11.2Z" transform="translate(-4.999 -3)" fill="#f2f2f2"/>
  </g>
</svg>
