<svg id="Layer_2" data-name="Layer 2" xmlns="http://www.w3.org/2000/svg" width="48" height="48" viewBox="0 0 48 48">
  <g id="invisible_box" data-name="invisible box">
    <rect id="Rectangle_105" data-name="Rectangle 105" width="48" height="48" fill="none"/>
  </g>
  <g id="icons_Q2" data-name="icons Q2" transform="translate(4 4)">
    <path id="Path_23" data-name="Path 23" d="M42,4H6A2,2,0,0,0,4,6V42a2,2,0,0,0,2,2H42a2,2,0,0,0,2-2V6A2,2,0,0,0,42,4ZM35.4,25.4A2,2,0,0,1,34,26H14a2,2,0,0,1-2-2,2.1,2.1,0,0,1,2-2H34a1.98,1.98,0,0,1,1.4,3.4Z" transform="translate(-4 -4)" fill="#f2f2f2"/>
  </g>
</svg>
