<svg id="Layer_2" data-name="Layer 2" xmlns="http://www.w3.org/2000/svg" width="48" height="48" viewBox="0 0 48 48">
  <g id="invisible_box" data-name="invisible box">
    <rect id="Rectangle_95" data-name="Rectangle 95" width="48" height="48" fill="none"/>
  </g>
  <g id="icons_Q2" data-name="icons Q2" transform="translate(4 3.985)">
    <path id="Path_20" data-name="Path 20" d="M43.4,18.8,29.3,4.6a1.9,1.9,0,0,0-2.8,0l-6,6,16.9,17,6-6a1.9,1.9,0,0,0,0-2.8ZM4.6,26.5A2,2,0,0,0,4,27.9V42a2,2,0,0,0,2,2H20.1a2,2,0,0,0,1.4-.6l13.1-13-17-16.9Z" transform="translate(-4 -3.985)" fill="#f2f2f2"/>
  </g>
</svg>
