<svg id="Layer_2" data-name="Layer 2" xmlns="http://www.w3.org/2000/svg" width="48" height="48" viewBox="0 0 48 48">
  <g id="invisible_box" data-name="invisible box">
    <rect id="Rectangle_88" data-name="Rectangle 88" width="48" height="48" fill="none"/>
  </g>
  <g id="Q3_icons" data-name="Q3 icons" transform="translate(4 4)">
    <path id="Path_4" data-name="Path 4" d="M42,44H6a2,2,0,0,1,0-4H42a2,2,0,0,1,0,4Z" transform="translate(-4 -4)" fill="#f2f2f2"/>
    <path id="Path_5" data-name="Path 5" d="M16.6,29.5l6,5.9a1.9,1.9,0,0,0,2.8,0l6-5.9a2.1,2.1,0,0,0,.2-2.7,1.9,1.9,0,0,0-3-.2L26,29.2V6a2,2,0,0,0-4,0V29.2l-2.6-2.6a1.9,1.9,0,0,0-3,.2A2.1,2.1,0,0,0,16.6,29.5Z" transform="translate(-4 -4)" fill="#f2f2f2"/>
  </g>
</svg>
