<?xml version="1.0" standalone="no"?>
<!DOCTYPE svg PUBLIC "-//W3C//DTD SVG 20010904//EN"
 "http://www.w3.org/TR/2001/REC-SVG-20010904/DTD/svg10.dtd">
<svg version="1.0" xmlns="http://www.w3.org/2000/svg"
 width="1353.000000pt" height="1638.000000pt" viewBox="0 0 1353.000000 1638.000000"
 preserveAspectRatio="xMidYMid meet">

<g transform="translate(0.000000,1638.000000) scale(0.100000,-0.100000)"
fill="#000000" stroke="none">
<path d="M2780 16345 c0 -19 6 -52 14 -72 8 -21 17 -55 21 -75 3 -21 10 -38
15 -38 6 0 10 -8 10 -18 0 -10 6 -27 14 -38 13 -18 22 -50 30 -106 1 -10 5
-21 9 -24 4 -4 7 -14 7 -23 0 -8 9 -33 19 -55 10 -23 22 -58 25 -78 4 -21 11
-38 16 -38 6 0 10 -18 10 -40 0 -22 5 -40 10 -40 6 0 10 -11 10 -25 0 -14 9
-34 20 -45 13 -13 20 -33 20 -58 0 -21 5 -43 12 -50 7 -7 9 -12 6 -12 -6 0 18
-32 55 -71 9 -10 17 -22 17 -25 0 -13 47 -43 68 -44 12 0 25 -6 28 -14 3 -8
18 -16 35 -20 17 -3 29 -12 29 -21 0 -9 15 -22 34 -30 19 -8 38 -19 41 -25 4
-6 11 -8 16 -5 5 4 9 2 9 -4 0 -6 6 -8 13 -5 7 2 22 -3 33 -13 11 -10 26 -19
34 -21 34 -8 80 -35 80 -48 0 -8 10 -14 24 -14 14 0 37 -5 53 -11 15 -6 66
-15 113 -20 79 -8 125 -15 125 -19 0 -3 37 -9 128 -20 85 -11 91 -11 118 9 16
12 29 17 29 11 0 -6 -7 -13 -15 -16 -8 -4 -24 -25 -35 -48 -11 -22 -29 -54
-39 -71 -51 -78 -171 -313 -171 -335 0 -8 -9 -28 -20 -45 -11 -16 -20 -40 -20
-52 0 -12 -7 -28 -15 -36 -8 -8 -12 -24 -10 -36 5 -26 -20 -77 -30 -62 -3 6
-11 8 -18 4 -6 -3 -48 -7 -93 -8 -61 -2 -87 -6 -99 -19 -15 -15 -14 -16 12
-17 25 -2 25 -2 5 -6 -14 -3 -32 3 -42 12 -12 11 -20 13 -25 6 -3 -6 -16 -11
-29 -11 -12 0 -27 -5 -34 -12 -9 -9 -12 -9 -12 1 0 7 -5 9 -11 5 -8 -4 -7 -9
2 -14 10 -7 10 -11 0 -24 -12 -14 -10 -16 7 -16 11 0 23 6 25 13 4 10 6 10 6
0 1 -8 15 -13 37 -13 19 0 33 4 29 9 -3 5 0 13 7 17 18 11 92 4 100 -9 6 -9 8
-9 8 0 0 7 8 12 18 11 71 -6 126 14 70 25 -19 3 -18 5 6 6 l29 1 -7 -62 c-4
-35 -11 -67 -16 -73 -4 -5 -14 -48 -21 -93 -11 -70 -16 -85 -34 -92 -12 -5
-30 -21 -40 -36 -39 -60 -52 -69 -82 -56 -25 11 -26 11 -10 -2 17 -13 14 -46
-4 -46 -4 0 -11 -16 -15 -35 -3 -19 -10 -35 -15 -35 -5 0 -8 5 -7 12 2 6 -5
14 -14 16 -14 3 -18 -3 -18 -22 0 -18 -5 -26 -17 -25 -11 0 -13 3 -5 6 6 2 12
13 12 23 0 16 -7 17 -54 13 -37 -4 -56 -1 -61 7 -5 8 -4 11 3 7 13 -9 43 3 37
14 -3 5 -33 7 -65 6 -58 -2 -60 -3 -60 -29 0 -16 4 -28 10 -28 6 0 6 -10 -1
-27 -5 -14 -7 -34 -3 -42 3 -9 6 -43 5 -76 0 -43 2 -54 9 -40 8 19 9 18 10 -5
1 -14 4 -19 7 -12 2 6 9 10 14 6 9 -5 13 13 10 51 -2 19 -1 19 12 3 17 -22 27
-23 27 -3 0 8 7 15 15 15 10 0 15 10 15 30 0 19 -5 29 -12 28 -8 -2 -14 10
-16 29 -2 22 -7 30 -17 27 -7 -3 -16 0 -20 7 -6 9 5 11 46 7 29 -3 55 -11 57
-17 2 -6 15 -11 29 -11 20 0 24 -4 18 -17 -4 -10 -11 -31 -17 -48 -14 -42 -41
-95 -49 -95 -4 0 -10 6 -12 13 -3 7 -6 4 -6 -7 -1 -12 -6 -16 -16 -12 -8 3
-15 0 -15 -6 0 -9 -3 -9 -12 0 -10 10 -10 15 2 22 13 8 12 10 -2 10 -14 0 -18
-9 -19 -42 -1 -37 -2 -39 -9 -18 -9 30 -13 5 -4 -28 4 -14 12 -21 20 -18 17 7
24 -18 20 -79 -4 -57 -15 -319 -20 -446 -1 -47 -5 -90 -8 -95 -3 -5 -9 -115
-12 -244 -6 -230 -18 -394 -36 -488 -4 -26 -6 -50 -3 -55 3 -4 0 -29 -6 -55
-23 -101 -21 -300 4 -492 19 -140 81 -288 198 -476 62 -98 193 -245 260 -291
23 -15 62 -42 86 -60 58 -44 70 -43 66 5 -2 20 -6 75 -10 122 -3 47 -10 118
-16 157 -6 40 -9 81 -8 90 1 10 -1 92 -5 183 -12 268 12 355 143 510 51 62
196 170 227 170 7 0 15 4 18 9 10 16 153 81 178 81 13 0 34 9 46 21 13 11 33
22 45 24 12 2 43 6 70 10 26 3 47 11 47 16 0 17 74 38 142 40 9 0 24 11 32 24
13 20 24 24 65 23 66 0 112 10 136 32 14 12 38 18 79 18 32 1 64 6 72 13 7 6
18 8 24 4 7 -4 14 1 16 12 5 18 13 20 80 16 48 -3 80 0 89 7 8 7 20 8 26 4 8
-4 9 -3 5 4 -4 7 -1 12 8 12 9 0 16 5 16 11 0 8 12 9 38 4 73 -14 94 -11 138
17 52 33 57 33 89 12 19 -12 34 -14 62 -8 21 5 45 9 53 9 27 2 80 30 80 42 0
7 5 13 10 13 6 0 10 -9 10 -20 0 -17 7 -20 43 -21 73 -2 91 2 129 28 l37 25
36 -22 c47 -29 121 -21 161 18 32 33 43 34 70 3 16 -19 33 -25 77 -29 38 -3
57 -1 57 7 0 6 9 11 21 11 11 0 18 4 15 9 -8 13 47 21 62 9 8 -8 12 -7 12 3 1
9 7 7 18 -7 9 -11 26 -26 37 -33 17 -10 13 -11 -25 -6 -52 7 -117 7 -143 -1
-13 -4 -16 -11 -11 -27 4 -12 10 -23 14 -25 12 -5 -13 -62 -27 -62 -7 0 -14
-6 -14 -12 -2 -23 -5 -81 -7 -165 -1 -60 -5 -82 -14 -80 -9 1 -15 -17 -18 -55
-5 -50 -3 -58 12 -59 10 -1 23 -3 28 -4 6 -1 17 -3 26 -4 8 0 12 -5 9 -11 -4
-6 39 -10 122 -10 l128 0 19 28 c15 22 24 27 47 24 16 -2 36 1 44 8 12 10 15
10 15 -3 0 -22 31 -29 98 -23 31 3 51 3 44 0 -6 -3 -10 -10 -6 -15 7 -12 91
-12 99 1 3 5 0 7 -8 4 -8 -3 -17 2 -21 11 -3 9 -2 13 4 10 6 -3 10 -2 10 3 0
6 -6 12 -14 15 -8 3 -12 15 -9 31 3 14 9 23 14 20 5 -3 9 21 10 53 1 40 3 50
8 33 6 -22 8 -23 14 -7 4 10 7 53 7 95 0 46 4 72 9 64 6 -10 9 -5 9 15 1 15 4
50 8 77 4 34 3 47 -5 42 -6 -4 -11 -2 -11 3 0 7 24 11 60 11 47 0 60 3 60 15
0 12 8 14 43 8 23 -3 47 -12 52 -20 13 -18 80 -22 125 -8 39 12 80 9 80 -6 0
-6 -4 -7 -10 -4 -5 3 -10 1 -10 -4 0 -6 -15 -11 -32 -10 -86 2 -152 -7 -156
-21 -5 -13 -3 -13 11 -1 15 12 17 11 17 -12 0 -16 12 -39 31 -58 24 -24 31
-40 30 -68 -1 -56 9 -96 20 -80 6 9 9 -5 9 -38 0 -36 -4 -53 -12 -53 -9 0 -8
-4 2 -10 13 -8 12 -10 -2 -10 -14 0 -18 -8 -18 -34 0 -19 5 -38 10 -41 6 -4 7
-11 4 -17 -5 -8 3 -9 26 -5 18 4 39 7 46 7 8 0 14 11 14 26 0 14 4 23 9 20 5
-3 11 6 14 20 4 24 -10 48 -34 56 -19 6 1 57 24 60 12 2 21 9 20 15 -2 7 9 21
24 32 14 12 20 21 13 21 -7 0 -10 3 -6 8 4 4 13 7 19 7 7 0 13 13 15 28 2 20
8 27 18 23 8 -3 14 1 14 9 0 8 9 15 19 15 24 0 37 18 19 25 -8 3 -14 20 -13
42 0 31 4 38 28 46 22 7 32 4 58 -17 17 -14 40 -27 52 -28 12 0 35 -2 52 -3
17 -1 35 4 41 12 9 13 17 10 55 -15 59 -39 95 -47 126 -27 23 16 26 15 58 -10
26 -19 51 -27 102 -32 38 -3 84 -13 103 -22 39 -17 44 -18 66 -20 10 -1 14 -7
10 -17 -3 -8 -2 -13 3 -10 5 3 11 -3 14 -13 3 -14 11 -17 32 -14 26 5 27 4 24
-32 -4 -40 20 -69 48 -58 11 4 14 1 12 -12 -5 -23 -58 -30 -66 -9 -3 8 -9 14
-14 14 -14 0 -11 -28 4 -33 9 -4 8 -8 -3 -16 -8 -6 -10 -11 -5 -12 6 0 1 -4
-10 -9 -20 -9 -20 -9 0 -9 11 -1 28 -10 37 -20 11 -13 24 -18 37 -14 12 3 21
1 21 -5 0 -6 -8 -13 -17 -15 -11 -3 -7 -5 10 -6 24 -1 26 1 17 18 -15 29 -12
40 10 34 11 -3 20 -11 20 -18 0 -7 6 -16 13 -19 9 -5 8 -8 -3 -13 -9 -4 30
-18 95 -33 77 -19 112 -24 117 -16 5 8 11 7 20 -2 6 -6 20 -12 30 -12 10 0 15
-5 13 -12 -3 -8 19 -23 59 -39 l64 -27 -4 32 c-4 28 -3 29 10 13 15 -19 33 -7
20 14 -4 8 1 9 16 4 15 -5 20 -4 16 4 -4 6 -14 11 -22 11 -8 0 -14 5 -14 11 0
6 7 8 18 4 12 -4 14 -3 6 5 -6 6 -18 8 -28 4 -13 -5 -14 -9 -5 -20 9 -11 8
-14 -4 -14 -16 0 -17 16 -3 39 7 10 3 12 -15 6 -13 -3 -19 -3 -12 2 19 14 -20
51 -58 55 -25 2 -35 8 -37 23 -2 11 -14 31 -25 44 -19 20 -14 18 33 -10 30
-18 59 -39 63 -46 4 -7 31 -25 58 -39 27 -13 52 -31 56 -39 3 -8 9 -15 14 -15
13 0 86 -76 138 -143 64 -84 136 -233 101 -212 -6 4 -8 10 -5 15 3 4 -3 14
-12 21 -14 12 -15 11 -9 -11 6 -19 5 -21 -3 -10 -6 8 -8 22 -6 31 3 9 -7 28
-22 43 -15 16 -28 35 -28 44 0 10 -8 17 -20 17 -11 0 -27 4 -35 9 -13 9 -13 8
0 -10 8 -10 21 -25 28 -32 26 -28 74 -104 97 -153 l24 -52 4 34 c2 22 4 12 6
-26 1 -33 8 -78 16 -100 8 -22 14 -62 15 -88 0 -74 13 -90 64 -83 32 5 46 3
56 -9 53 -63 184 57 269 248 63 141 83 390 44 542 -42 160 -53 225 -64 376
-11 143 -9 212 7 418 8 97 -3 153 -54 286 -46 121 -80 190 -103 211 -20 18
-26 64 -9 64 6 0 10 12 10 26 0 14 4 23 9 20 5 -3 12 11 16 32 4 20 13 44 20
52 8 8 15 38 16 65 2 29 9 54 17 61 8 6 17 35 20 64 3 33 12 62 23 74 24 25
36 66 44 150 4 38 10 64 14 57 5 -7 11 23 15 65 3 43 11 83 16 88 6 6 10 15
10 21 0 5 -5 3 -10 -5 -8 -13 -10 -13 -10 2 0 9 5 18 10 20 6 2 11 97 13 255
2 226 0 253 -15 265 -9 7 -18 24 -20 37 -2 16 -16 32 -36 44 -29 17 -35 18
-50 4 -18 -15 -82 -12 -82 4 0 13 -48 11 -52 -2 -2 -6 -16 -12 -31 -12 -18 -1
-27 -8 -27 -19 0 -9 -5 -20 -11 -24 -6 -3 -9 -23 -7 -44 3 -36 2 -38 -24 -34
-15 1 -30 -1 -33 -7 -4 -5 -10 -7 -15 -4 -5 3 -6 -10 -3 -30 4 -23 2 -35 -6
-35 -6 0 -11 7 -11 15 0 8 -5 15 -11 15 -7 0 -9 -10 -5 -26 6 -21 4 -25 -8
-21 -10 4 -17 -2 -22 -16 -7 -21 -7 -21 -15 -2 -6 15 -8 16 -8 4 -1 -16 -39
-29 -86 -29 -27 0 -69 -38 -73 -66 -2 -17 3 -20 35 -23 21 -1 45 -2 53 -3 40
-3 58 4 63 22 4 16 11 20 29 16 13 -3 35 -7 50 -11 19 -3 30 -14 34 -30 6 -25
44 -37 44 -14 0 6 7 4 15 -5 20 -19 10 -62 -15 -69 -11 -3 -21 0 -23 6 -2 7
-11 7 -23 2 -28 -12 -157 -17 -150 -6 3 5 -11 8 -33 8 -22 -1 -37 -5 -34 -10
2 -4 8 -5 13 -2 4 3 6 -4 3 -15 -3 -11 -7 -20 -8 -20 -10 0 -48 76 -61 122 -9
29 -22 60 -29 68 -7 8 -32 53 -56 100 -24 47 -54 103 -68 125 -29 46 -46 75
-80 137 -13 23 -26 45 -30 48 -6 5 -67 94 -109 160 -12 19 -34 58 -48 85 -13
28 -29 57 -33 65 -4 8 -23 46 -41 84 -37 77 -146 201 -196 222 -17 7 -44 26
-60 43 -16 16 -51 41 -79 55 -27 14 -75 48 -105 76 -30 27 -75 59 -100 71 -67
32 -87 43 -181 97 -48 27 -124 61 -170 77 -46 15 -106 43 -134 64 -27 20 -62
42 -76 49 -24 13 -36 42 -17 42 4 0 8 6 8 14 0 8 14 18 32 22 18 3 38 14 45
23 8 10 12 12 13 4 0 -9 15 -13 43 -12 38 1 39 2 12 8 -38 8 -22 19 28 19 21
0 43 5 51 11 7 6 15 9 18 6 3 -3 37 2 76 11 53 12 69 19 65 30 -3 8 1 14 11
14 9 0 16 5 16 10 0 6 17 10 38 10 33 0 39 4 49 31 9 24 16 29 25 22 19 -15
123 -9 203 11 39 10 78 18 87 17 9 0 22 7 29 15 6 8 20 14 30 14 11 0 19 4 19
9 0 6 20 13 45 17 25 3 45 10 45 15 0 5 -1287 9 -2895 9 l-2895 0 0 -35z
m3383 -62 c-7 -2 -19 -2 -25 0 -7 3 -2 5 12 5 14 0 19 -2 13 -5z m182 -11 c-3
-3 -11 0 -18 7 -9 10 -8 11 6 5 10 -3 15 -9 12 -12z m138 -9 c-7 -2 -19 -2
-25 0 -7 3 -2 5 12 5 14 0 19 -2 13 -5z m84 1 c-3 -3 -12 -4 -19 -1 -8 3 -5 6
6 6 11 1 17 -2 13 -5z m963 -214 c0 -5 -2 -10 -4 -10 -3 0 -8 5 -11 10 -3 6
-1 10 4 10 6 0 11 -4 11 -10z m30 -10 c0 -5 -2 -10 -4 -10 -3 0 -8 5 -11 10
-3 6 -1 10 4 10 6 0 11 -4 11 -10z m-3190 -594 c0 -2 -8 -10 -17 -17 -16 -13
-17 -12 -4 4 13 16 21 21 21 13z m-57 -61 c-3 -9 -8 -14 -10 -11 -3 3 -2 9 2
15 9 16 15 13 8 -4z m-53 -55 c0 -5 -4 -10 -10 -10 -5 0 -10 5 -10 10 0 6 5
10 10 10 6 0 10 -4 10 -10z m-69 -128 c-5 -9 -16 -26 -25 -37 -15 -20 -15 -20
-16 2 0 33 9 49 30 50 16 1 18 -2 11 -15z m-51 -63 c0 -5 -4 -9 -10 -9 -5 0
-10 7 -10 16 0 8 5 12 10 9 6 -3 10 -10 10 -16z m5490 -504 c0 -14 -4 -25 -10
-25 -5 0 -10 11 -10 25 0 14 5 25 10 25 6 0 10 -11 10 -25z m-90 -134 c0 -23
-14 -41 -30 -41 -16 0 -30 18 -30 41 0 5 14 9 30 9 17 0 30 -4 30 -9z m-235
-341 c3 -5 1 -10 -4 -10 -6 0 -11 5 -11 10 0 6 2 10 4 10 3 0 8 -4 11 -10z
m72 -292 c-3 -8 -6 -5 -6 6 -1 11 2 17 5 13 3 -3 4 -12 1 -19z m-5863 -43 c3
-8 1 -15 -4 -15 -6 0 -10 7 -10 15 0 8 2 15 4 15 2 0 6 -7 10 -15z m-147 -57
c-3 -8 -6 -5 -6 6 -1 11 2 17 5 13 3 -3 4 -12 1 -19z m-50 -60 c-3 -7 -5 -2
-5 12 0 14 2 19 5 13 2 -7 2 -19 0 -25z m65 -117 c8 11 9 11 6 1 -4 -16 -22
-18 -24 -3 -2 8 -1 7 3 0 4 -8 8 -7 15 2z m38 -26 c0 -5 -5 -3 -10 5 -5 8 -10
20 -10 25 0 6 5 3 10 -5 5 -8 10 -19 10 -25z m-17 -30 c-7 -21 -13 -19 -13 6
0 11 4 18 10 14 5 -3 7 -12 3 -20z m5710 -193 c14 -12 17 -32 17 -107 0 -79
-3 -97 -23 -126 -23 -35 -51 -46 -76 -30 -17 11 -38 118 -47 244 l-7 99 59
-33 c32 -18 67 -39 77 -47z m-2233 -842 c10 0 20 -9 23 -20 3 -11 14 -20 24
-20 14 0 18 -7 17 -27 -1 -16 3 -36 7 -45 6 -10 5 -19 -1 -23 -8 -5 -8 -11 -1
-19 6 -7 8 -16 3 -20 -4 -4 1 -12 11 -17 10 -6 17 -22 17 -41 0 -26 -2 -29
-15 -18 -13 10 -15 9 -15 -9 0 -12 6 -24 13 -27 9 -3 14 -26 15 -69 1 -52 -2
-63 -13 -58 -9 3 -15 -1 -15 -11 0 -9 -8 -16 -20 -16 -11 0 -20 -7 -20 -15 0
-26 -16 -16 -28 18 -15 40 -16 70 -2 62 6 -3 7 1 4 9 -3 9 -10 16 -14 16 -5 0
-7 16 -6 35 2 19 0 35 -4 35 -5 0 -10 20 -11 44 -2 24 -1 42 4 39 4 -2 7 7 7
21 0 14 5 26 11 26 6 0 7 5 2 13 -10 16 -4 60 10 69 18 11 -4 27 -38 28 -17 0
-47 -2 -69 -5 -21 -2 -36 -2 -33 1 17 17 94 52 105 49 8 -3 22 -5 32 -5z m166
-36 c-8 -8 -20 -14 -27 -14 -8 0 -5 7 7 19 10 10 22 16 27 14 4 -2 1 -11 -7
-19z m93 1 c13 -14 -20 -26 -53 -20 -31 6 -35 10 -24 22 11 14 62 12 77 -2z
m504 -62 c-7 -2 -19 -2 -25 0 -7 3 -2 5 12 5 14 0 19 -2 13 -5z m860 -150 c-7
-2 -19 -2 -25 0 -7 3 -2 5 12 5 14 0 19 -2 13 -5z m63 -33 c8 0 14 -4 14 -9 0
-17 -55 5 -59 24 -3 17 -2 18 14 2 9 -9 23 -17 31 -17z m129 -49 c10 -17 -12
-21 -25 -6 -10 12 -10 15 3 15 9 0 18 -4 22 -9z m52 -17 c-3 -3 -12 -4 -19 -1
-8 3 -5 6 6 6 11 1 17 -2 13 -5z m66 -42 c-8 -2 -23 6 -34 19 -26 31 -24 31
15 6 21 -14 28 -23 19 -25z m-1299 7 c-3 -5 -10 -7 -15 -3 -5 3 -7 10 -3 15 3
5 10 7 15 3 5 -3 7 -10 3 -15z m1106 -19 c0 -5 -4 -10 -10 -10 -5 0 -10 5 -10
10 0 6 5 10 10 10 6 0 10 -4 10 -10z m-1690 -110 c0 -5 -4 -10 -10 -10 -5 0
-10 5 -10 10 0 6 5 10 10 10 6 0 10 -4 10 -10z m1887 -26 c-3 -3 -12 -4 -19
-1 -8 3 -5 6 6 6 11 1 17 -2 13 -5z m453 -264 c0 -5 -4 -10 -10 -10 -5 0 -10
5 -10 10 0 6 5 10 10 10 6 0 10 -4 10 -10z"/>
<path d="M9007 13293 c13 -190 39 -243 83 -171 16 26 20 50 20 113 0 44 -4 85
-8 91 -6 10 -85 54 -96 54 -3 0 -2 -39 1 -87z m43 4 c0 -17 2 -17 20 4 l21 24
-3 -25 c-1 -14 2 -31 7 -39 5 -10 4 -16 -3 -19 -7 -2 -12 -19 -12 -37 0 -45
-9 -65 -26 -58 -10 3 -14 22 -14 57 0 29 -3 56 -7 60 -4 4 -9 26 -10 49 -2 39
-1 41 12 23 8 -11 15 -28 15 -39z"/>
<path d="M8020 16200 c0 -5 7 -10 16 -10 8 0 12 5 9 10 -3 6 -10 10 -16 10 -5
0 -9 -4 -9 -10z"/>
<path d="M3577 14552 c-48 -2 -57 -6 -55 -20 2 -13 -6 -18 -39 -20 -24 -2 -43
-7 -43 -12 0 -11 72 -16 169 -12 78 4 80 5 90 33 5 16 7 30 3 30 -24 4 -75 4
-125 1z"/>
<path d="M3781 14494 c0 -11 3 -14 6 -6 3 7 2 16 -1 19 -3 4 -6 -2 -5 -13z"/>
<path d="M9415 14400 c-3 -5 1 -10 10 -10 9 0 13 5 10 10 -3 6 -8 10 -10 10
-2 0 -7 -4 -10 -10z"/>
<path d="M3610 14130 c0 -5 5 -10 10 -10 6 0 10 5 10 10 0 6 -4 10 -10 10 -5
0 -10 -4 -10 -10z"/>
<path d="M3546 14103 c-4 -9 -3 -20 2 -25 11 -11 36 17 27 32 -9 15 -22 12
-29 -7z"/>
<path d="M3386 14062 c-13 -12 -20 -13 -23 -5 -2 7 -11 9 -19 6 -7 -3 -11 -9
-8 -14 3 -5 10 -7 15 -4 5 4 9 -10 9 -29 0 -31 3 -36 24 -36 20 0 24 6 30 42
8 49 -3 65 -28 40z"/>
<path d="M3440 14044 c0 -8 5 -12 10 -9 6 3 10 10 10 16 0 5 -4 9 -10 9 -5 0
-10 -7 -10 -16z"/>
<path d="M3335 13963 c-2 -7 -11 -13 -19 -13 -7 0 -16 -11 -18 -25 -6 -29 8
-34 17 -6 4 12 12 18 21 14 9 -3 14 1 14 13 0 15 2 16 9 5 7 -11 17 -12 42 -5
18 5 34 14 36 19 5 15 -96 13 -102 -2z"/>
<path d="M3380 13920 c19 -13 30 -13 30 0 0 6 -10 10 -22 10 -19 0 -20 -2 -8
-10z"/>
<path d="M3311 13594 c0 -11 3 -14 6 -6 3 7 2 16 -1 19 -3 4 -6 -2 -5 -13z"/>
<path d="M6300 12460 c0 -5 -18 -14 -40 -20 l-40 -11 1 -57 c1 -31 4 -46 7
-32 4 21 6 18 16 -20 6 -25 15 -43 20 -40 5 3 13 -6 17 -19 5 -13 15 -21 22
-18 11 4 13 -12 10 -76 -4 -74 -3 -80 10 -58 11 18 16 20 20 10 3 -8 6 41 6
109 1 80 -3 121 -9 117 -11 -7 -13 1 -14 58 -1 26 3 37 13 37 11 0 9 4 -5 15
-22 17 -34 19 -34 5z m37 -222 c-2 -13 -4 -5 -4 17 -1 22 1 32 4 23 2 -10 2
-28 0 -40z"/>
<path d="M7432 12260 c0 -19 2 -27 5 -17 2 9 2 25 0 35 -3 9 -5 1 -5 -18z"/>
<path d="M6293 12150 c0 -41 2 -58 4 -37 2 20 2 54 0 75 -2 20 -4 3 -4 -38z"/>
<path d="M6363 12185 c0 -22 2 -30 4 -17 2 12 2 30 0 40 -3 9 -5 -1 -4 -23z"/>
<path d="M6915 11950 c28 -12 67 -12 60 0 -3 6 -23 10 -43 9 -30 0 -33 -2 -17
-9z"/>
<path d="M5893 11924 c42 -13 49 -13 63 1 14 13 9 15 -48 14 l-63 0 48 -15z"/>
<path d="M8605 11910 c3 -5 8 -10 11 -10 2 0 4 5 4 10 0 6 -5 10 -11 10 -5 0
-7 -4 -4 -10z"/>
<path d="M6603 11893 c-39 -4 -41 -6 -38 -31 2 -15 4 -38 4 -52 1 -18 4 -21
10 -12 7 11 10 10 15 -3 10 -28 7 -73 -6 -78 -7 -3 1 -6 19 -6 17 -1 35 -5 38
-11 4 -6 -1 -7 -12 -4 -15 5 -16 4 -3 -5 8 -6 40 -10 70 -9 30 0 43 3 28 5
-26 4 -41 23 -18 23 6 0 10 9 10 20 0 11 -4 20 -10 20 -5 0 -7 7 -4 15 4 10 0
15 -12 16 -17 0 -16 2 3 11 25 12 35 42 20 57 -8 8 -5 11 11 11 25 0 28 6 10
23 -14 13 -64 16 -135 10z m14 -140 c-3 -10 -5 -4 -5 12 0 17 2 24 5 18 2 -7
2 -21 0 -30z"/>
<path d="M7050 11885 c0 -8 5 -15 10 -15 6 0 10 7 10 15 0 8 -4 15 -10 15 -5
0 -10 -7 -10 -15z"/>
<path d="M7080 11841 c0 -55 2 -59 26 -64 18 -3 24 -1 20 9 -3 8 -1 14 5 14
13 0 0 52 -17 66 -19 15 -18 28 1 20 8 -3 15 -1 15 4 0 6 -11 10 -25 10 -24 0
-25 -3 -25 -59z"/>
<path d="M8658 11890 c-3 -12 -6 -26 -8 -45 -2 -15 -4 -12 -10 10 l-8 30 -3
-35 c-1 -19 -3 -44 -3 -55 -1 -15 -11 -22 -36 -26 -22 -4 -26 -7 -12 -8 22 -1
33 -21 11 -21 -7 0 -8 -11 -3 -32 4 -18 8 -46 9 -62 1 -21 9 -32 26 -39 l24
-10 -24 -5 c-13 -2 -26 -12 -28 -23 -4 -14 -14 -19 -37 -18 -30 1 -30 1 -6 9
23 7 23 8 -10 11 -102 8 -170 20 -170 31 0 6 -7 8 -15 4 -8 -3 -15 -1 -15 4 0
6 -3 9 -7 9 -5 -1 -19 -1 -33 0 -20 1 -22 3 -10 11 13 8 12 10 -2 10 -10 0
-18 6 -18 13 0 9 -3 8 -9 -2 -7 -11 -10 -10 -15 5 -5 17 -19 19 -128 22 -91 3
-127 8 -140 19 -13 11 -39 14 -126 11 -60 -3 -117 -1 -128 3 -18 7 -18 8 1 9
19 1 19 1 3 14 -10 7 -18 25 -18 40 0 14 -3 25 -7 25 -32 -5 -84 4 -96 16 -8
8 -17 11 -21 8 -6 -6 -9 12 -9 50 1 14 -5 17 -21 13 -11 -3 -24 -6 -28 -6 -15
0 5 -30 21 -31 12 0 11 -2 -4 -8 -11 -5 -36 -7 -55 -6 -27 3 -31 1 -17 -6 12
-7 16 -21 15 -49 -1 -39 -17 -57 -19 -22 -1 9 -5 4 -11 -13 -13 -41 -113 -111
-134 -94 -8 6 -39 13 -70 14 -51 3 -55 2 -51 -15 3 -13 -1 -21 -14 -25 -10 -4
-19 -10 -19 -15 0 -5 -13 -16 -29 -24 -45 -24 -54 -59 -48 -198 7 -154 17
-213 37 -214 8 -1 20 -2 26 -3 6 0 19 -17 30 -36 10 -19 24 -35 31 -35 7 0 13
-9 13 -19 0 -10 7 -21 15 -25 8 -3 15 -12 15 -21 0 -8 6 -15 13 -15 30 0 47
-35 41 -82 -4 -29 -2 -48 5 -52 6 -4 11 -23 11 -42 0 -22 6 -38 19 -46 15 -9
17 -17 10 -41 -5 -16 -5 -35 -2 -41 4 -6 -2 -4 -13 4 -18 14 -18 14 -1 -6 9
-11 17 -24 17 -28 0 -10 84 -121 134 -176 83 -91 304 -270 335 -270 6 0 11 -6
11 -12 0 -9 4 -8 10 2 9 13 14 8 12 -11 -1 -4 7 -9 16 -11 15 -4 17 1 14 27
-4 34 13 43 36 18 13 -13 4 -18 -21 -14 -5 1 -7 -4 -5 -11 3 -7 16 -12 29 -11
l24 3 -25 -11 -25 -11 23 -11 c12 -5 22 -14 22 -19 0 -4 5 -8 10 -8 6 0 29 -9
53 -19 72 -33 150 -54 199 -55 25 -1 42 -4 36 -7 -14 -9 100 -19 209 -19 153
0 313 40 438 109 78 44 159 120 128 122 -24 2 -25 2 -47 -7 -12 -4 -17 -4 -13
2 3 6 -10 9 -35 8 -27 -1 -37 1 -30 8 6 6 35 11 66 12 34 0 56 5 56 12 0 6 7
17 15 24 12 10 15 10 15 -1 1 -9 8 -5 20 10 15 18 20 38 20 86 0 80 12 113 45
121 14 3 25 12 25 20 0 8 7 14 15 14 8 0 15 7 15 16 0 14 3 14 15 4 13 -11 15
-5 15 49 0 41 4 60 12 58 6 -1 14 8 17 21 3 13 11 22 16 20 6 -2 11 19 12 47
1 38 0 44 -7 25 -6 -20 -8 -15 -8 25 0 39 2 45 8 25 l8 -25 1 25 c1 14 10 43
21 65 11 22 20 45 20 52 0 7 7 10 15 7 13 -5 15 9 15 94 0 57 4 104 10 107 6
3 8 16 5 28 -2 12 -12 63 -21 112 -17 89 -61 198 -99 244 -48 59 -86 95 -101
97 -9 1 -13 0 -10 -3 12 -12 -28 -43 -53 -42 -20 0 -22 2 -8 7 15 6 13 9 -12
19 -24 9 -33 8 -41 -2 -6 -8 -18 -11 -26 -8 -10 4 -12 0 -8 -12 6 -14 3 -16
-14 -10 -25 7 -31 -12 -7 -21 19 -8 20 -44 1 -44 -8 0 -18 5 -21 10 -4 6 -15
8 -25 5 -25 -8 -36 13 -14 29 9 7 14 18 10 24 -4 7 -2 12 5 12 7 0 9 3 6 7 -4
3 -18 -4 -32 -17 -19 -18 -27 -21 -39 -11 -21 17 -8 52 18 49 17 -2 27 9 53
59 25 50 33 60 42 49 7 -8 8 -16 4 -18 -4 -3 -2 -3 5 -2 7 2 24 -2 37 -8 19
-8 22 -14 13 -20 -9 -5 -10 -8 -1 -8 6 0 14 4 18 10 3 5 13 6 23 3 9 -3 14 -3
11 1 -4 4 -17 9 -29 11 -13 2 -30 11 -39 18 -30 26 -78 40 -87 26 -8 -13 -21
-11 -27 5 -4 11 -1 13 11 10 14 -5 13 -3 -2 10 -11 9 -27 15 -35 15 -14 -1
-13 -2 0 -6 11 -3 15 -11 12 -24 -5 -20 -23 -27 -23 -9 0 6 -4 10 -10 10 -6 0
-10 -26 -10 -59 0 -59 -19 -99 -21 -44 0 15 -3 22 -6 16 -3 -10 -8 -9 -20 2
-8 8 -18 13 -23 10 -5 -3 -12 4 -15 16 -4 12 -12 18 -21 15 -8 -3 -14 1 -14 8
0 8 10 16 23 20 18 5 20 8 7 16 -8 5 -10 10 -4 10 5 0 15 -5 21 -11 7 -7 13
-8 17 0 4 6 -4 13 -19 17 -31 8 -34 24 -2 17 18 -4 19 -3 7 7 -12 9 -8 10 19
5 53 -11 29 11 -26 24 -47 10 -101 11 -105 1z m502 -209 c0 -5 -7 -12 -16 -15
-14 -5 -15 -4 -4 9 14 17 20 19 20 6z m-1925 -31 c3 -5 2 -10 -4 -10 -5 0 -13
5 -16 10 -3 6 -2 10 4 10 5 0 13 -4 16 -10z m85 -6 c0 -2 -17 -4 -37 -4 -24 0
-33 3 -25 9 12 7 62 4 62 -5z m-7 -21 c-7 -2 -21 -2 -30 0 -10 3 -4 5 12 5 17
0 24 -2 18 -5z m1712 -52 c-3 -5 -1 -12 4 -15 5 -3 7 -15 4 -26 -4 -15 -2 -19
10 -14 8 3 18 0 22 -5 3 -6 11 -8 17 -5 7 4 7 0 0 -13 -12 -22 -89 -27 -84 -5
1 6 -3 12 -10 12 -6 0 -3 6 7 14 18 13 18 13 -1 24 -17 10 -17 11 -1 12 9 0
17 7 17 15 0 8 5 15 11 15 5 0 8 -4 4 -9z m-438 -47 c-3 -3 -12 -4 -19 -1 -8
3 -5 6 6 6 11 1 17 -2 13 -5z m322 -16 c36 4 39 2 34 -17 -6 -23 -48 -54 -78
-57 -20 -2 -55 22 -55 37 0 4 10 9 23 11 12 2 23 9 23 16 2 22 5 27 10 17 2
-6 22 -9 43 -7z m-112 -44 c-9 -9 -28 6 -21 18 4 6 10 6 17 -1 6 -6 8 -13 4
-17z m-1023 -20 c9 -3 16 -14 16 -24 0 -42 -82 -77 -137 -59 -30 9 -32 13 -22
32 25 48 90 71 143 51z m-529 -194 c18 -8 17 -9 -7 -9 -16 -1 -28 4 -28 9 0
12 8 12 35 0z m85 -51 c0 -37 -8 -40 -50 -21 l-35 15 35 7 c32 7 31 8 -20 10
-54 3 -55 3 -15 9 77 13 85 11 85 -20z m391 -556 c0 -16 1 -16 9 2 8 19 9 19
9 -2 1 -16 6 -21 16 -17 9 4 15 0 15 -10 0 -19 20 -22 21 -3 0 10 2 10 6 0 2
-7 11 -13 19 -13 8 0 14 -7 14 -16 0 -8 4 -13 8 -10 4 2 14 1 22 -5 10 -6 11
-9 3 -9 -7 0 -13 -5 -13 -11 0 -5 5 -7 10 -4 6 3 10 2 10 -3 0 -6 11 -13 25
-16 14 -4 25 -13 25 -20 0 -16 73 -57 107 -59 29 -3 31 -13 8 -43 -14 -20 -27
-24 -66 -24 -33 0 -49 -4 -49 -12 0 -9 -4 -8 -10 2 -5 8 -10 12 -10 8 0 -4
-11 -3 -25 2 -17 6 -25 6 -25 -1 0 -6 -5 -7 -10 -4 -6 4 -9 21 -7 38 5 39 -8
68 -27 61 -8 -3 -17 -1 -20 4 -3 6 -15 8 -26 5 -11 -3 -20 -1 -20 5 0 5 -13
12 -30 16 -21 4 -30 11 -30 25 0 11 -4 23 -10 26 -5 3 -10 15 -10 26 0 11 -6
22 -14 25 -10 4 -11 10 -3 28 14 29 77 36 78 9z m166 -95 c-3 -8 -6 -5 -6 6
-1 11 2 17 5 13 3 -3 4 -12 1 -19z m988 -248 c-3 -5 -14 -10 -23 -10 -15 0
-15 2 -2 10 20 13 33 13 25 0z m-165 -60 c0 -5 -4 -10 -10 -10 -5 0 -10 5 -10
10 0 6 5 10 10 10 6 0 10 -4 10 -10z m-294 -87 c58 -8 36 -21 -38 -22 -38 -1
-46 2 -42 14 7 17 12 18 80 8z m-87 -32 c7 -5 9 -11 5 -14 -5 -3 -15 1 -22 9
-14 16 -5 18 17 5z"/>
<path d="M7845 10490 c3 -5 8 -10 11 -10 2 0 4 5 4 10 0 6 -5 10 -11 10 -5 0
-7 -4 -4 -10z"/>
<path d="M5965 11870 c27 -12 43 -12 25 0 -8 5 -22 9 -30 9 -10 0 -8 -3 5 -9z"/>
<path d="M7481 11861 c-9 -6 -6 -8 13 -8 14 0 23 3 20 8 -7 11 -15 11 -33 0z"/>
<path d="M9050 11831 c0 -5 16 -18 35 -30 19 -11 35 -19 35 -17 0 2 -16 16
-35 30 -19 15 -35 23 -35 17z"/>
<path d="M8806 11816 c3 -9 11 -16 16 -16 13 0 5 23 -10 28 -7 2 -10 -2 -6
-12z"/>
<path d="M7720 11800 c0 -11 5 -20 10 -20 6 0 10 9 10 20 0 11 -4 20 -10 20
-5 0 -10 -9 -10 -20z"/>
<path d="M7968 11813 c6 -2 18 -2 25 0 6 3 1 5 -13 5 -14 0 -19 -2 -12 -5z"/>
<path d="M9140 11790 c0 -5 5 -10 10 -10 6 0 10 5 10 10 0 6 -4 10 -10 10 -5
0 -10 -4 -10 -10z"/>
<path d="M6585 11690 c-3 -5 1 -10 10 -10 9 0 13 5 10 10 -3 6 -8 10 -10 10
-2 0 -7 -4 -10 -10z"/>
<path d="M7167 11673 c-10 -9 -9 -23 1 -23 5 0 9 7 9 15 0 17 -1 18 -10 8z"/>
<path d="M5296 11624 c-12 -12 -16 -12 -16 -2 0 8 -3 9 -8 2 -4 -5 -25 -11
-47 -13 -22 -1 -42 -6 -45 -12 -4 -5 -29 -12 -56 -15 -43 -5 -59 -14 -107 -58
-31 -29 -57 -58 -57 -64 0 -7 -5 -11 -10 -9 -6 1 -18 -11 -28 -28 -9 -16 -21
-33 -26 -36 -14 -10 1 -82 19 -92 13 -7 15 -22 10 -90 -3 -45 -8 -91 -10 -102
-5 -28 19 -118 33 -123 7 -2 12 -18 12 -35 0 -24 3 -28 10 -17 8 12 10 10 10
-10 0 -14 9 -36 20 -50 11 -14 20 -29 20 -33 0 -4 9 -17 20 -29 10 -12 17 -25
14 -30 -3 -4 2 -11 10 -14 9 -3 16 -15 16 -26 0 -10 4 -17 9 -13 5 3 12 1 16
-5 4 -6 11 -7 17 -4 7 5 9 1 5 -9 -4 -11 -2 -14 9 -10 10 4 14 -3 14 -26 0
-27 4 -31 26 -31 14 0 23 -4 20 -8 -2 -4 4 -8 15 -8 10 0 19 5 19 11 1 5 9 0
19 -12 17 -20 28 -22 144 -24 97 -2 127 -5 131 -16 5 -11 10 -12 28 -1 26 14
30 15 61 17 13 0 34 10 47 21 13 11 29 20 35 20 7 0 15 7 19 15 3 8 12 15 21
15 8 0 15 5 15 10 0 6 6 10 13 10 7 0 24 14 39 30 17 20 28 26 31 18 3 -8 6
-6 6 5 1 9 7 17 14 17 7 0 24 12 37 28 18 20 36 28 65 31 60 4 73 33 74 163 1
59 -3 88 -11 90 -7 3 -13 25 -14 50 -3 72 -36 208 -51 208 -8 0 -13 12 -13 30
0 21 -5 30 -17 30 -9 0 -14 3 -10 6 3 4 -5 27 -18 53 -14 25 -25 52 -25 58 0
7 -5 13 -11 13 -13 0 -33 20 -42 43 -3 9 -12 17 -19 17 -7 0 -26 7 -42 15 -16
8 -66 18 -112 22 -46 3 -84 10 -84 14 0 5 -56 9 -124 9 -100 0 -128 -3 -140
-16z m78 -272 c5 -8 -37 -52 -49 -52 -7 0 -45 39 -45 46 0 3 5 2 10 -1 6 -3
10 -1 10 4 0 13 66 15 74 3z m-207 -694 c-3 -7 -5 -2 -5 12 0 14 2 19 5 13 2
-7 2 -19 0 -25z m33 2 c0 -5 -4 -10 -10 -10 -5 0 -10 5 -10 10 0 6 5 10 10 10
6 0 10 -4 10 -10z m153 -47 c-7 -2 -21 -2 -30 0 -10 3 -4 5 12 5 17 0 24 -2
18 -5z"/>
<path d="M6828 11633 c7 -3 16 -2 19 1 4 3 -2 6 -13 5 -11 0 -14 -3 -6 -6z"/>
<path d="M6608 11623 c7 -3 16 -2 19 1 4 3 -2 6 -13 5 -11 0 -14 -3 -6 -6z"/>
<path d="M7012 11354 c-1 -26 4 -56 10 -67 8 -16 8 -22 -1 -25 -6 -2 -11 -15
-11 -28 0 -14 -5 -23 -12 -21 -9 1 -15 -18 -19 -58 -3 -33 -6 -47 -7 -31 -2
36 -13 28 -18 -14 -2 -19 1 -29 8 -27 7 1 17 -14 24 -33 11 -33 12 -34 17 -10
4 23 4 22 6 -5 2 -40 16 -63 25 -40 3 9 3 21 0 26 -13 21 7 67 33 74 21 5 24
10 20 33 -4 22 -25 120 -53 250 -8 38 -21 24 -22 -24z"/>
<path d="M4091 11179 c-18 -52 -14 -89 9 -89 19 0 20 4 14 58 -4 31 -8 58 -9
60 -2 2 -8 -11 -14 -29z"/>
<path d="M9430 11085 c-19 -23 -9 -25 25 -4 26 17 27 19 9 19 -12 0 -27 -7
-34 -15z"/>
<path d="M7210 10961 c0 -10 8 -25 18 -34 16 -14 17 -13 18 13 1 20 -5 30 -17
33 -13 4 -19 0 -19 -12z"/>
<path d="M7190 10724 c-19 -10 -21 -14 -7 -14 9 0 17 -7 17 -17 0 -14 2 -14
20 2 11 10 23 15 27 12 3 -4 0 -7 -7 -7 -11 0 -11 -3 -2 -12 9 -9 15 -9 23 -1
19 19 -1 36 -33 29 -26 -5 -29 -4 -18 9 15 18 13 18 -20 -1z"/>
<path d="M9232 10650 c0 -14 2 -19 5 -12 2 6 2 18 0 25 -3 6 -5 1 -5 -13z"/>
<path d="M7330 10629 c0 -7 -10 -9 -25 -7 -14 3 -25 2 -25 -3 0 -4 12 -10 28
-12 15 -2 -25 -5 -88 -6 -75 -2 -108 -5 -95 -11 22 -9 21 -10 -13 -14 -13 -2
-25 1 -28 6 -3 4 -14 8 -26 8 -17 0 -18 -2 -8 -15 9 -10 9 -15 1 -15 -13 0
-15 -47 -2 -52 10 -3 14 -30 27 -179 9 -106 2 -129 -48 -158 -31 -17 -37 -25
-27 -32 11 -7 9 -10 -8 -15 -13 -4 -23 -10 -23 -15 0 -5 -12 -15 -26 -21 -14
-7 -32 -23 -39 -37 -8 -15 -14 -20 -15 -11 0 12 -12 14 -67 10 l-68 -4 65 -7
c59 -6 56 -6 -32 -6 -54 0 -98 4 -98 9 0 4 -15 7 -32 7 l-33 -1 30 -8 30 -8
-32 -1 c-20 -1 -33 4 -33 12 0 9 -2 9 -8 -1 -10 -15 -38 -7 -46 14 -3 8 -19
14 -36 14 -18 0 -29 4 -25 10 4 6 -7 10 -27 9 -31 -1 -32 -1 -8 -9 21 -7 19
-8 -17 -9 -24 -1 -43 -5 -43 -10 0 -4 -12 -7 -27 -5 -16 2 -22 1 -15 -2 6 -3
12 -17 12 -30 0 -15 6 -24 15 -24 8 0 15 -7 15 -15 0 -8 6 -15 14 -15 20 0 88
-68 81 -80 -6 -9 8 -14 28 -11 4 0 7 -4 7 -10 0 -7 11 -9 30 -5 26 5 30 3 30
-17 1 -21 1 -22 15 -3 14 19 15 19 15 -7 0 -15 -4 -27 -9 -27 -5 0 -11 -13
-13 -30 -3 -19 0 -30 8 -30 6 0 15 -16 18 -36 9 -46 -11 -94 -40 -94 -11 0
-29 -7 -40 -15 -10 -8 -27 -15 -36 -15 -12 0 -18 -8 -19 -22 0 -21 -1 -22 -8
-3 -7 17 -8 17 -15 -8 -3 -15 -10 -26 -15 -23 -4 3 -21 1 -37 -4 -24 -7 -25
-8 -6 -9 12 -1 22 -5 22 -11 0 -5 -6 -7 -13 -5 -6 3 -18 -4 -25 -15 -10 -17
-10 -20 5 -21 10 0 13 -3 6 -5 -7 -3 -9 -12 -6 -20 3 -8 0 -14 -6 -14 -6 0
-10 -5 -8 -12 1 -6 -9 -15 -23 -19 -19 -5 -20 -7 -6 -8 41 -2 -5 -17 -62 -20
-6 -1 -11 -4 -11 -8 1 -5 1 -17 0 -27 -1 -20 -1 -20 -16 0 -10 12 -14 14 -13
4 2 -8 -1 -15 -7 -16 -55 -10 -84 -43 -96 -109 -4 -22 -10 -50 -14 -62 -6 -18
-1 -26 24 -40 17 -10 31 -23 31 -29 0 -12 97 -37 111 -28 5 3 9 11 9 18 0 11
19 13 80 12 74 -2 104 6 63 17 -10 3 -1 3 21 2 51 -4 82 8 89 36 5 18 9 20 20
11 8 -7 17 -9 20 -5 4 3 9 -1 13 -10 8 -23 61 -47 101 -47 41 0 43 -17 2 -34
-25 -11 -28 -15 -16 -25 11 -8 13 -24 10 -51 l-6 -40 44 -1 c24 0 52 -2 62 -4
24 -4 67 37 67 64 0 11 -5 21 -10 21 -15 0 -60 50 -60 66 0 8 6 14 14 14 8 0
17 6 20 13 5 10 7 10 12 0 8 -18 24 -16 24 2 0 32 19 13 22 -22 2 -21 8 -38
13 -38 39 -1 76 -59 72 -113 -3 -34 0 -42 17 -46 28 -8 55 25 49 58 -4 18 1
27 19 37 12 6 26 17 30 23 5 7 8 4 8 -6 0 -10 4 -18 8 -18 12 0 49 29 37 30
-13 0 16 20 30 20 6 0 4 -4 -4 -9 -19 -12 -5 -30 19 -24 11 3 20 0 20 -6 0 -6
-11 -11 -25 -11 -14 0 -31 -10 -42 -25 -10 -15 -38 -46 -62 -72 -36 -36 -47
-42 -55 -31 -11 13 -44 13 -76 1 -12 -4 -11 -7 5 -13 19 -8 19 -9 -2 -9 -13
-1 -23 -5 -23 -11 0 -5 -12 -10 -26 -10 -14 0 -23 -4 -19 -10 4 -6 -8 -10 -29
-10 -28 0 -34 -3 -29 -15 5 -14 -11 -16 -131 -13 -125 3 -163 9 -118 21 9 3
-44 6 -118 7 -74 2 -123 5 -107 7 41 6 32 25 -11 22 -43 -3 -63 6 -56 25 3 8
1 17 -5 21 -6 3 -11 1 -11 -5 0 -6 -10 -4 -25 6 -15 10 -25 12 -25 5 0 -18
-87 -14 -94 4 -3 9 -18 15 -35 15 -16 0 -32 6 -34 13 -3 6 -6 1 -6 -13 -2 -53
-21 -98 -44 -104 -12 -3 -23 -1 -25 4 -2 6 -18 11 -35 11 l-32 2 35 7 c33 7
28 12 -15 14 -11 1 -19 7 -17 14 1 6 -4 12 -12 12 -8 0 -17 -6 -20 -12 -3 -7
-3 -3 0 10 6 26 -12 30 -20 4 -3 -10 -19 -23 -35 -29 -16 -6 -29 -17 -29 -24
3 -44 -3 -59 -21 -59 -22 0 -46 -58 -38 -91 3 -10 1 -17 -4 -13 -14 9 -10 -40
6 -73 19 -38 32 -48 69 -57 21 -5 26 -10 17 -15 -9 -6 -5 -10 13 -15 15 -4 24
-11 21 -16 -3 -6 4 -14 17 -19 13 -5 30 -16 37 -25 13 -15 15 -15 27 1 12 17
13 17 14 -4 0 -26 20 -42 21 -16 0 15 2 14 11 -4 15 -31 48 -30 48 1 0 13 6
29 14 35 11 9 15 7 19 -10 3 -11 10 -18 15 -15 6 3 13 -5 16 -19 4 -16 11 -22
21 -19 8 4 15 1 15 -5 0 -6 18 -11 41 -11 24 0 38 -4 34 -10 -4 -6 8 -10 28
-10 48 0 98 -11 92 -20 -3 -4 3 -18 13 -30 15 -19 22 -21 39 -12 21 12 64 5
75 -12 4 -6 9 -4 14 7 5 13 17 17 53 16 34 0 41 -3 26 -9 -16 -7 -12 -9 25
-16 35 -6 40 -9 25 -15 -17 -6 -16 -8 7 -8 28 -1 78 -43 58 -49 -18 -6 0 -22
26 -22 30 0 32 -20 2 -21 -22 0 -22 -1 -3 -9 11 -5 16 -9 11 -9 -5 -1 -3 -7 4
-15 6 -8 18 -12 26 -9 8 3 14 -1 14 -10 0 -11 15 -16 58 -19 31 -2 72 -11 90
-20 18 -10 40 -14 48 -11 8 3 23 -2 33 -11 10 -9 20 -13 23 -10 13 12 47 -17
53 -45 10 -47 46 -73 97 -70 69 4 85 0 91 -21 6 -23 27 -27 27 -5 0 8 7 15 15
15 8 0 15 7 15 15 0 9 9 15 21 15 18 0 20 -4 14 -27 -5 -23 -4 -25 10 -13 19
16 22 13 28 -28 7 -45 17 -53 17 -14 0 36 20 45 21 10 0 -22 1 -22 9 -3 8 18
9 17 9 -7 1 -16 6 -28 12 -28 6 0 17 -7 25 -15 9 -9 33 -15 58 -15 49 0 61 -7
45 -27 -9 -10 -6 -13 12 -14 20 -1 21 -2 5 -6 -18 -5 -18 -6 5 -24 22 -17 23
-19 4 -19 -17 -1 -16 -3 8 -16 16 -9 25 -20 21 -26 -5 -8 -2 -9 9 -5 14 5 17
0 17 -24 0 -17 -4 -28 -9 -24 -5 3 -13 0 -17 -6 -3 -6 -1 -15 6 -19 14 -9 4
-71 -13 -82 -8 -4 -8 -10 0 -20 6 -7 13 -25 17 -40 6 -28 17 -31 97 -32 10 0
15 -5 12 -13 -3 -7 0 -13 6 -13 24 0 9 -21 -19 -26 -16 -4 -30 -10 -30 -15 0
-5 -10 -9 -22 -8 -22 0 -22 1 -3 8 19 8 19 8 -3 20 -13 7 -28 10 -35 7 -7 -2
-4 -5 6 -5 9 -1 17 -5 17 -11 0 -5 -8 -10 -17 -11 -12 0 -8 -4 10 -11 15 -5
27 -16 27 -24 0 -10 12 -14 44 -12 45 1 50 11 23 46 -15 20 14 15 30 -5 14
-17 14 -17 9 0 -4 12 -2 17 6 15 9 -3 13 -33 14 -98 1 -80 -1 -90 -13 -75 -11
16 -13 16 -13 3 0 -9 -9 -18 -21 -21 -13 -3 -19 -12 -17 -24 2 -11 -3 -18 -12
-18 -8 0 -21 -4 -28 -9 -7 -4 -19 -3 -26 3 -10 9 -15 8 -20 -4 -7 -19 -26 -20
-26 0 0 8 -7 15 -15 15 -8 0 -15 9 -15 19 0 23 -18 37 -31 24 -4 -4 -9 -22
-11 -40 -2 -31 -21 -36 -31 -9 -3 7 -18 13 -34 12 -21 -1 -27 -5 -25 -18 2
-14 -4 -18 -25 -19 -15 0 -21 -3 -13 -6 53 -18 80 -36 80 -53 0 -11 5 -20 10
-20 6 0 10 9 10 20 0 27 16 25 24 -2 11 -42 7 -88 -9 -94 -8 -4 -15 -17 -15
-31 0 -18 -4 -24 -14 -20 -9 4 -13 1 -10 -6 2 -7 -23 -40 -56 -75 -39 -40 -60
-71 -60 -86 0 -13 -7 -29 -15 -36 -8 -7 -15 -23 -15 -35 0 -13 -3 -25 -8 -27
-4 -1 -22 -32 -41 -68 -18 -36 -46 -81 -61 -101 -16 -20 -35 -52 -43 -71 -32
-76 -200 -197 -318 -228 -55 -15 -308 -137 -371 -180 -49 -32 -104 -110 -224
-317 -33 -58 -66 -103 -74 -103 -8 0 -55 11 -105 25 -169 48 -499 123 -604
138 -18 3 -25 11 -28 33 -7 52 -8 412 -1 402 3 -6 5 74 4 179 -2 183 -7 220
-27 208 -5 -4 -9 1 -9 9 0 8 -10 18 -21 21 -16 5 -18 9 -9 15 7 4 10 12 6 18
-3 6 -2 13 4 17 13 8 13 52 0 60 -5 3 -10 1 -10 -4 0 -6 -12 -11 -27 -11 -42
0 -73 -11 -73 -25 0 -7 -9 -15 -20 -18 -11 -3 -20 -12 -20 -21 0 -9 -6 -16
-12 -16 -9 0 -8 -4 2 -10 11 -7 7 -10 -17 -11 -42 -2 -42 -2 -80 -25 -18 -10
-33 -27 -33 -36 0 -11 -8 -18 -20 -18 -12 0 -20 7 -20 18 0 14 -2 15 -10 2 -5
-8 -12 -11 -17 -7 -4 4 -2 17 5 27 10 16 10 20 -1 20 -20 0 -37 -22 -37 -47 0
-13 -6 -23 -14 -23 -21 0 -25 -35 -10 -87 8 -27 13 -56 10 -66 -5 -19 25 -57
44 -57 6 0 10 8 10 18 0 13 2 14 9 3 11 -17 23 1 16 26 -4 11 -1 9 6 -4 15
-28 33 -30 24 -3 -4 11 -2 20 4 20 6 0 10 -3 10 -7 -3 -21 3 -33 16 -33 9 0
18 -7 21 -15 4 -8 10 -15 16 -15 5 0 6 5 3 10 -3 6 -1 10 4 10 6 0 11 -7 11
-15 0 -8 7 -15 16 -15 27 0 43 -27 50 -85 5 -43 12 -60 30 -72 30 -19 67 -127
58 -171 -4 -17 -10 -30 -14 -27 -4 3 -11 -7 -16 -23 l-7 -27 -7 30 c-7 28 -8
27 -9 -12 0 -24 4 -43 9 -43 6 0 10 -5 10 -11 0 -5 -4 -7 -10 -4 -5 3 -10 -1
-10 -9 0 -10 6 -13 15 -10 10 4 15 0 15 -11 0 -9 4 -14 9 -10 6 3 11 -17 13
-47 2 -43 6 -53 21 -52 15 2 17 -8 17 -67 0 -49 4 -71 13 -75 17 -6 16 -2 21
-144 3 -115 -9 -220 -26 -220 -5 0 -9 -10 -8 -22 4 -49 0 -78 -12 -75 -6 1
-14 -7 -16 -18 -2 -11 -9 -24 -15 -30 -13 -11 -33 -58 -51 -120 -6 -22 -17
-50 -24 -63 -7 -12 -12 -30 -10 -40 2 -9 -2 -16 -9 -15 -15 3 -26 -31 -18 -56
3 -11 2 -22 -4 -25 -14 -9 -7 -68 11 -96 40 -64 23 -159 -32 -179 -14 -5 -38
-20 -55 -35 -27 -23 -38 -26 -109 -26 -65 0 -77 -2 -72 -15 3 -9 0 -15 -8 -15
-15 0 -29 -40 -29 -82 0 -29 -11 -38 -20 -15 -3 6 -6 2 -6 -10 -1 -14 -12 -28
-31 -38 -16 -9 -30 -19 -30 -23 0 -10 -50 -32 -71 -32 -10 0 -21 -4 -24 -10
-10 -15 -55 -12 -61 5 -4 8 -10 13 -14 10 -5 -3 -11 -1 -15 5 -3 5 -19 10 -35
10 -16 0 -32 5 -35 10 -3 6 -15 10 -25 10 -11 0 -24 9 -30 20 -6 11 -20 20
-31 20 -12 0 -28 14 -40 35 -12 20 -30 40 -40 45 -10 6 -25 25 -34 43 -8 18
-25 43 -38 57 -26 29 -41 59 -58 115 -6 22 -18 51 -25 65 -14 27 -35 114 -35
145 0 10 -3 24 -8 30 -8 10 -22 84 -41 215 -6 41 -15 91 -20 110 -5 19 -16 76
-26 125 -17 88 -27 116 -51 142 -8 9 -9 23 -3 44 9 29 4 53 -20 104 -24 52
-100 301 -116 381 -10 49 -24 93 -31 97 -16 10 -17 34 -1 39 19 7 -14 61 -45
76 -37 18 -191 32 -292 26 -124 -6 -206 -30 -288 -84 -84 -55 -122 -104 -188
-241 -26 -53 -62 -114 -81 -135 -51 -58 -64 -84 -72 -138 -10 -64 -15 -76 -34
-76 -13 0 -13 -2 3 -14 18 -13 17 -19 -18 -177 -20 -90 -48 -229 -62 -309 -15
-80 -41 -215 -57 -300 -30 -153 -36 -192 -57 -399 -12 -116 -7 -293 10 -355
16 -58 141 -180 200 -196 24 -7 55 -17 69 -22 32 -13 248 -62 655 -148 55 -11
149 -32 208 -46 60 -13 143 -31 185 -39 97 -17 487 -100 567 -120 33 -8 114
-26 180 -40 66 -15 181 -39 255 -55 74 -16 277 -61 450 -100 339 -76 358 -78
489 -44 77 21 171 82 171 113 0 6 7 14 15 17 8 4 15 15 15 25 0 10 5 19 10 19
6 0 10 6 10 13 0 6 11 35 25 62 13 28 25 56 25 63 0 7 11 38 25 68 14 30 25
58 25 62 0 25 23 82 31 77 5 -4 9 3 9 15 0 29 19 62 31 55 5 -4 9 -18 9 -32 0
-21 -2 -24 -15 -13 -13 11 -15 6 -15 -38 0 -35 4 -52 15 -56 8 -3 15 -15 15
-26 0 -28 20 -26 21 3 1 18 2 18 6 4 3 -10 10 -17 16 -14 7 2 29 10 50 18 33
11 37 17 38 49 1 19 3 51 4 70 1 19 3 52 4 74 1 30 4 37 16 32 9 -3 18 1 22
10 4 11 8 12 13 4 5 -8 9 -5 13 8 4 18 2 20 -19 12 -32 -13 -51 -4 -59 28 -7
26 -8 26 -22 -14 -16 -47 -57 -75 -68 -46 -5 13 -8 14 -14 3 -7 -10 -9 -9 -14
3 -4 11 1 18 19 22 19 5 22 9 14 19 -8 9 -7 14 2 18 10 4 10 6 1 6 -18 1 -16
21 2 21 11 0 15 12 15 44 0 28 7 52 19 67 14 17 17 30 10 46 -5 13 -4 24 2 27
5 2 4 3 -3 1 -7 -1 -12 -8 -10 -14 1 -6 -2 -11 -8 -11 -15 0 -12 40 11 137 12
48 21 103 21 121 0 17 4 32 9 32 4 0 5 7 2 17 -4 10 -2 14 4 10 6 -4 12 11 16
39 2 26 9 49 14 53 6 3 13 39 17 80 3 41 13 88 20 105 14 31 41 282 37 341 -2
17 -3 71 -4 120 -1 50 -6 96 -11 104 -5 7 -17 45 -27 84 l-18 70 42 37 c23 20
69 61 103 91 34 30 130 115 215 190 85 75 166 149 180 165 54 60 250 246 254
242 11 -10 -9 -48 -24 -46 -12 2 -15 -4 -13 -26 3 -26 1 -28 -12 -17 -21 18
-21 -2 0 -34 19 -29 15 -131 -6 -181 -8 -18 -10 -39 -5 -50 5 -13 9 -15 12 -6
3 6 8 10 12 8 4 -3 6 15 6 40 -2 31 2 44 12 44 7 0 13 -9 13 -21 0 -15 5 -19
15 -15 12 4 15 -3 15 -37 0 -23 3 -72 7 -109 5 -54 9 -68 22 -68 10 0 22 -5
28 -11 7 -7 15 10 27 58 9 37 16 76 16 85 0 10 6 17 13 15 6 -1 12 6 12 15 0
9 3 20 7 24 12 12 28 -45 28 -100 0 -63 11 -76 58 -69 31 5 35 4 29 -12 -4
-10 -2 -24 4 -31 9 -11 9 -18 0 -28 -9 -10 -9 -15 -1 -18 8 -2 9 -16 5 -41 -5
-27 -12 -37 -21 -33 -8 3 -14 -1 -14 -8 0 -8 6 -16 13 -19 8 -3 5 -12 -10 -28
l-23 -23 1 39 c2 49 -11 126 -23 140 -5 5 -15 19 -22 30 -12 17 -16 17 -31 5
-14 -12 -18 -12 -26 1 -5 9 -9 10 -9 2 0 -6 5 -15 10 -18 6 -3 10 -15 10 -26
0 -21 16 -26 22 -7 8 24 40 -20 36 -49 -3 -23 -8 -27 -40 -28 l-37 -2 3 49 c3
36 0 48 -10 48 -8 0 -14 -7 -14 -15 0 -8 -9 -15 -20 -15 -16 0 -20 -7 -20 -33
0 -37 15 -58 36 -50 8 3 14 -1 14 -11 0 -9 5 -16 10 -16 6 0 10 -10 10 -22 0
-19 2 -20 11 -8 8 12 9 9 4 -10 -4 -14 -9 -36 -11 -50 -5 -25 -5 -25 11 -5 16
19 16 15 10 -66 -5 -59 -4 -89 4 -93 6 -4 11 -12 11 -19 0 -6 -7 -2 -15 9 -14
19 -14 19 -15 -1 0 -11 -3 -30 -6 -42 -6 -20 -2 -23 22 -24 16 0 23 -3 17 -6
-7 -2 -13 -19 -13 -36 0 -59 -10 -77 -36 -71 -20 5 -24 1 -30 -30 -6 -34 -44
-73 -44 -46 0 6 -4 8 -10 5 -6 -4 -10 13 -10 44 0 44 -3 51 -27 63 -15 8 -32
28 -39 48 -7 19 -13 27 -13 18 -1 -11 -9 -18 -20 -18 -20 0 -30 -44 -32 -144
-1 -28 -3 -43 -6 -33 -2 9 -11 17 -19 17 -9 0 -14 11 -14 33 0 24 -3 28 -10
17 -8 -12 -10 -11 -10 7 0 45 -9 53 -35 29 -20 -18 -23 -33 -26 -109 -3 -52
-9 -91 -16 -95 -6 -4 -14 -25 -19 -47 -4 -22 -11 -42 -15 -45 -5 -3 -12 -30
-17 -60 -9 -56 -16 -53 -27 10 -7 44 -43 90 -55 71 -4 -8 -13 -11 -19 -7 -6 4
-20 2 -32 -4 -17 -10 -21 -8 -26 10 -5 20 -7 19 -24 -9 -21 -35 -59 -43 -59
-12 0 11 6 22 13 24 9 4 9 7 -1 14 -13 10 -17 61 -9 130 3 29 0 44 -9 47 -8 3
-14 18 -15 33 -1 26 -2 26 -10 -7 -5 -19 -9 -94 -9 -167 1 -121 -1 -133 -19
-142 -27 -15 -31 -14 -31 9 0 17 -6 20 -41 18 -31 -1 -43 -6 -47 -20 -2 -10
-11 -18 -19 -18 -12 0 -13 -3 -4 -13 7 -10 7 -17 0 -24 -8 -8 -8 -17 0 -31 6
-11 8 -41 4 -71 -4 -34 -2 -51 5 -51 6 0 9 -7 6 -15 -4 -9 0 -15 9 -15 9 0 20
-7 25 -16 8 -14 12 -11 26 16 9 18 16 41 16 52 0 10 4 18 10 18 6 0 9 24 9 55
-1 39 -6 55 -15 55 -8 0 -14 5 -14 11 0 5 4 8 9 4 5 -3 12 -1 16 5 13 21 20 0
18 -58 -1 -47 2 -64 18 -80 21 -23 26 -62 8 -62 -8 0 -7 -5 2 -16 7 -9 12 -35
10 -65 -2 -47 -1 -49 23 -49 20 0 26 5 28 23 0 12 4 -7 8 -43 7 -69 4 -90 -12
-90 -5 0 -6 5 -3 10 3 6 -1 10 -9 10 -9 0 -16 -8 -17 -17 0 -15 -2 -15 -9 2
-8 19 -9 19 -9 -2 -1 -15 -7 -23 -18 -24 -15 0 -15 -2 2 -9 17 -7 17 -9 3 -9
-16 -1 -18 -13 -18 -111 0 -93 3 -111 18 -120 16 -10 16 -10 0 -20 -21 -13
-25 -85 -7 -110 9 -13 10 -12 5 3 -4 12 0 17 16 17 30 0 47 -28 37 -62 -10
-35 14 -66 37 -47 8 6 14 8 14 3 0 -10 35 51 46 79 3 9 16 17 28 16 20 0 20
-1 1 -9 -22 -9 -12 -16 35 -23 20 -3 15 -6 -20 -13 l-45 -8 35 -6 c33 -5 35
-8 41 -50 5 -38 7 -40 9 -15 2 17 4 40 4 52 2 36 15 38 31 2 9 -19 14 -24 11
-12 -6 35 11 37 22 4 13 -36 5 -74 -14 -67 -9 3 -14 -2 -14 -13 0 -22 19 -31
66 -31 20 0 34 -5 35 -12 0 -7 4 -4 9 7 8 18 9 17 9 -7 1 -16 5 -28 9 -28 5 0
14 -11 20 -25 14 -31 29 -32 58 -4 25 24 44 18 44 -13 0 -17 -2 -18 -15 -8
-18 15 -20 5 -2 -14 10 -12 15 -12 30 2 16 15 17 15 11 -1 -5 -14 -2 -16 12
-10 11 3 23 12 27 20 11 18 46 17 53 -2 4 -8 10 -12 15 -9 5 3 9 0 9 -5 0 -21
17 -10 46 29 42 57 64 50 64 -20 0 -28 -15 -49 -22 -31 -3 10 -22 14 -50 12
-22 -1 -23 -20 -3 -57 23 -44 20 -57 -12 -49 -15 3 -31 12 -36 18 -7 11 -5 22
10 70 3 9 0 17 -6 17 -6 0 -11 -8 -11 -17 -1 -18 -32 -63 -44 -63 -3 0 -6 7
-6 16 0 33 -25 5 -28 -31 -2 -25 -11 -44 -23 -53 -10 -7 -19 -19 -19 -26 0 -8
-7 -19 -15 -26 -8 -7 -14 -20 -13 -29 2 -9 -4 -16 -12 -16 -8 0 -21 -8 -28
-17 -7 -10 -20 -18 -29 -18 -12 0 -14 -7 -10 -32 3 -18 3 -27 0 -20 -6 16 -23
16 -23 -1 0 -8 -19 -13 -62 -13 -35 -1 -46 1 -25 3 20 2 35 9 32 14 -4 5 -11
7 -16 4 -16 -11 -49 6 -49 25 0 15 -18 30 -37 30 -2 0 -4 -15 -3 -33 4 -60 0
-77 -15 -77 -10 0 -15 -11 -16 -32 -1 -31 -1 -32 -9 -8 -7 21 -8 18 -11 -20
-1 -25 -3 -49 -4 -55 -2 -5 -3 -18 -4 -27 0 -10 -9 -18 -18 -19 -15 0 -15 -2
2 -9 16 -7 16 -9 4 -9 -11 -1 -19 -13 -23 -37 -4 -19 -16 -44 -27 -55 l-20
-20 -12 30 c-12 32 -27 41 -27 17 0 -8 -7 -17 -16 -20 -22 -9 -24 -8 -25 12 0
9 -3 12 -5 5 -8 -18 -34 -4 -34 18 0 12 -7 19 -20 19 -11 0 -20 5 -20 10 0 6
9 10 19 10 11 0 23 4 26 10 4 6 -1 7 -11 3 -14 -5 -16 -3 -10 12 4 11 4 44 0
75 -6 45 -9 50 -15 30 -7 -24 -7 -24 -8 -2 -1 12 -5 22 -10 22 -20 0 -60 -43
-67 -73 -4 -17 -9 -27 -11 -22 -4 13 -73 7 -73 -6 0 -5 -4 -9 -10 -9 -5 0 -10
14 -10 30 0 17 -4 30 -9 30 -5 0 -5 -16 1 -37 17 -70 22 -127 10 -119 -7 4
-17 -3 -24 -18 -12 -29 -28 -34 -28 -11 0 8 -7 15 -15 15 -18 0 -20 41 -3 58
9 9 9 15 0 24 -7 7 -12 19 -12 28 0 8 -9 21 -21 28 -12 7 -19 16 -16 19 8 8
-26 43 -43 44 -10 0 -11 2 -2 6 6 2 12 9 12 14 0 6 -4 7 -10 4 -5 -3 -15 3
-22 15 -15 23 -33 27 -24 5 3 -9 0 -18 -7 -21 -14 -5 -16 -31 -5 -50 10 -15 3
-114 -7 -114 -5 0 -10 7 -11 16 -3 22 -11 27 -28 21 -9 -4 -13 -13 -10 -22 4
-8 0 -17 -9 -21 -8 -3 -17 -18 -21 -34 -3 -19 -16 -35 -34 -44 -35 -18 -42
-32 -43 -94 l-2 -47 -7 40 -7 40 -2 -42 c-1 -34 4 -45 26 -62 16 -13 39 -21
57 -20 42 3 76 -9 76 -27 0 -8 10 -14 26 -14 22 0 25 -2 14 -15 -10 -12 -9
-15 8 -15 11 0 19 -6 18 -14 0 -8 2 -15 7 -15 31 -3 39 0 33 14 -4 11 2 15 24
15 16 0 32 5 35 10 10 16 25 12 25 -6 0 -10 6 -14 14 -11 10 4 18 -2 22 -16 6
-19 8 -20 13 -5 6 17 7 16 19 -2 11 -18 10 -20 -15 -20 -14 0 -24 -3 -21 -6 3
-3 54 -5 112 -5 94 1 106 -1 106 -17 1 -13 4 -11 16 8 14 24 15 24 9 -17 -5
-33 -3 -45 13 -61 10 -10 22 -26 25 -36 4 -9 11 -15 16 -12 5 3 12 -1 15 -10
3 -8 10 -13 16 -9 9 6 14 -7 25 -77 3 -21 10 -38 15 -38 6 0 10 -12 10 -27 0
-22 2 -25 10 -13 7 11 10 5 10 -23 0 -22 -4 -36 -10 -32 -5 3 -12 -7 -16 -22
-6 -31 -9 -38 -28 -70 -7 -13 -15 -20 -18 -17 -3 3 -11 -11 -18 -30 -6 -20
-16 -36 -21 -36 -5 0 -9 -22 -9 -50 0 -38 -3 -48 -14 -44 -9 4 -16 -6 -21 -33
-6 -32 -9 -35 -15 -18 -7 16 -9 14 -9 -12 -1 -22 -6 -33 -16 -33 -8 0 -15 -7
-15 -15 0 -8 -7 -15 -15 -15 -13 0 -21 -25 -16 -52 0 -5 -4 -8 -10 -8 -8 0 -8
-5 1 -15 18 -22 70 -20 70 3 0 14 2 15 10 2 8 -12 10 -10 10 9 0 13 3 21 7 18
9 -10 32 25 33 49 0 16 8 23 30 27 31 7 82 50 93 80 3 9 13 17 22 17 8 0 15 6
15 14 0 8 7 16 15 20 8 3 15 18 16 33 0 15 3 22 6 16 3 -10 8 -10 19 1 8 8 14
19 14 25 0 6 4 11 9 11 16 0 51 66 51 97 0 17 7 36 15 43 8 7 15 21 15 31 0
11 6 19 13 19 8 0 12 17 12 52 0 52 1 53 31 56 28 3 32 0 37 -27 9 -43 54 -38
61 5 2 12 11 18 22 17 18 -1 18 -1 0 13 -19 13 -17 14 14 10 19 -2 36 -9 38
-15 2 -6 17 -11 33 -11 26 0 29 3 30 33 1 30 1 31 9 7 8 -24 8 -24 9 -2 1 14
7 22 20 22 10 0 24 7 31 15 13 16 85 22 76 6 -3 -5 3 -20 14 -32 14 -17 18
-19 14 -6 -5 13 -1 17 20 17 17 0 26 5 26 16 0 11 5 14 16 10 9 -3 21 -6 27
-6 7 0 6 -4 -3 -10 -12 -8 -10 -10 9 -10 20 0 21 -2 11 -15 -10 -12 -9 -15 4
-15 10 0 15 -4 12 -8 -9 -15 41 -35 68 -28 16 4 30 1 40 -9 13 -14 16 -13 25
2 8 16 25 18 138 16 70 0 142 -4 158 -7 78 -16 103 -17 109 -7 4 6 20 11 35
11 20 0 31 7 39 25 8 17 20 25 37 25 14 0 24 -3 24 -7 -1 -5 -1 -22 0 -39 1
-24 5 -31 19 -30 11 1 17 -6 17 -19 0 -13 -6 -20 -17 -19 -10 1 -18 -2 -18 -6
0 -4 -7 -11 -16 -14 -8 -3 -12 -2 -9 4 4 6 -5 10 -20 10 -17 0 -24 -4 -19 -12
5 -8 2 -9 -9 -5 -13 5 -17 1 -17 -19 0 -14 4 -22 10 -19 6 3 10 -3 10 -13 0
-11 -7 -22 -15 -26 -8 -3 -15 -13 -15 -21 0 -9 -13 -30 -29 -45 -29 -30 -48
-100 -26 -100 5 0 3 -5 -5 -10 -11 -7 -5 -10 23 -10 24 0 40 5 43 15 4 8 12
15 20 15 8 0 14 6 14 13 0 21 40 48 83 56 24 4 41 13 39 19 -1 7 5 12 13 12 9
0 12 6 9 15 -4 9 0 15 10 15 9 0 15 5 14 11 -2 6 8 13 22 15 14 3 27 9 28 14
5 13 32 13 32 0 0 -5 7 -10 16 -10 8 0 12 5 9 10 -6 9 8 14 28 11 4 0 7 8 7
19 0 25 17 26 23 3 4 -14 5 -13 6 4 1 18 6 21 26 17 17 -3 27 1 31 11 4 8 15
15 25 15 10 0 19 7 19 15 0 9 7 18 15 21 8 4 15 12 15 20 0 31 20 11 26 -26 7
-42 23 -64 25 -33 0 10 3 13 6 6 5 -14 34 -18 31 -4 -2 5 12 25 29 44 34 38
63 41 63 6 0 -11 9 -21 23 -24 30 -8 77 10 77 30 0 8 5 15 10 15 6 0 10 7 10
15 0 8 5 15 10 15 6 0 10 -7 10 -16 0 -10 5 -14 15 -10 9 3 18 -1 21 -9 9 -21
47 -18 67 5 11 13 13 20 4 20 -6 0 -4 5 6 11 9 6 15 14 12 20 -4 5 5 9 19 9
14 0 26 6 26 13 0 8 3 8 9 -2 7 -11 24 -12 74 -7 72 7 97 -5 97 -48 0 -17 5
-21 27 -20 15 0 29 6 31 13 6 19 -8 62 -18 56 -6 -3 -15 -3 -21 0 -13 9 19 34
44 35 10 0 15 5 12 10 -4 6 5 10 19 10 16 0 26 -6 26 -14 0 -23 27 -27 33 -4
3 11 10 17 16 14 5 -4 12 -2 15 3 7 10 56 9 74 -2 7 -5 12 -3 12 3 0 6 5 8 11
5 5 -4 18 0 27 8 19 16 79 21 87 6 4 -5 15 -9 26 -9 10 0 19 -7 19 -15 0 -8 8
-15 18 -15 9 0 13 3 7 8 -6 4 -11 26 -13 49 -2 36 1 45 23 59 14 9 25 23 25
30 0 17 16 18 26 2 5 -7 3 -8 -6 -3 -9 6 -11 4 -5 -4 5 -9 10 -10 18 -2 13 13
28 15 25 4 -1 -5 4 -28 12 -53 10 -38 14 -42 21 -25 l8 20 0 -20 c2 -36 20 5
27 62 6 52 7 53 40 53 21 0 34 -5 34 -13 0 -7 10 -18 21 -26 18 -11 23 -11 30
1 7 11 9 11 9 -1 0 -11 3 -11 15 -1 8 7 15 19 15 26 0 10 14 14 51 14 41 0 50
3 45 15 -3 8 3 22 12 32 16 16 17 16 20 -6 3 -17 8 -20 24 -15 11 3 36 6 56 6
20 0 54 9 75 19 43 23 53 20 62 -20 5 -23 10 -27 30 -23 15 3 23 10 22 23 -1
17 -2 17 -21 1 -20 -16 -20 -16 -6 3 23 30 29 33 73 30 26 -2 46 -10 56 -23
12 -15 23 -19 44 -15 15 3 27 12 27 19 0 8 7 14 15 14 9 0 15 -9 15 -24 0 -30
38 -43 55 -19 8 11 19 14 31 9 14 -6 16 -9 5 -15 -7 -5 -13 -20 -13 -34 0 -17
-5 -24 -17 -22 -9 1 -10 0 -4 -2 7 -3 11 -17 9 -34 -2 -18 1 -29 9 -29 20 0
25 12 14 31 -5 11 -6 19 -2 18 24 -4 43 3 43 15 0 7 14 16 31 20 26 5 29 9 24
28 -3 13 -3 18 2 12 10 -14 58 -11 59 4 1 7 2 27 3 45 1 22 4 28 10 18 7 -11
9 -11 14 0 3 8 6 -12 6 -44 1 -33 5 -56 10 -52 5 3 13 1 16 -5 5 -8 11 -8 20
0 7 6 37 13 66 17 30 3 62 13 72 21 16 14 19 14 27 2 6 -8 10 -25 10 -38 0
-14 8 -26 23 -31 25 -10 38 -4 18 8 -14 9 -7 51 9 51 18 0 48 43 55 78 6 30 8
34 16 19 6 -10 14 -15 20 -12 5 4 9 -10 9 -29 0 -29 4 -36 20 -36 11 0 20 -4
20 -9 0 -5 14 4 30 19 19 18 30 38 31 57 0 15 4 37 8 48 7 17 9 16 15 -13 4
-18 16 -37 27 -43 11 -5 17 -14 14 -18 -2 -5 2 -14 11 -22 12 -10 16 -9 20 7
3 11 19 28 35 39 16 11 32 30 35 43 4 12 10 22 15 22 5 0 6 7 3 15 -5 12 2 15
30 15 20 0 36 4 36 9 0 21 -13 41 -22 35 -18 -12 3 36 28 63 13 14 24 34 24
43 0 9 13 28 28 41 16 13 32 36 36 52 3 15 13 27 21 27 10 0 15 10 15 30 0 22
4 28 15 24 11 -5 15 1 15 20 0 14 5 26 10 26 6 0 10 9 10 20 0 11 7 20 15 20
9 0 15 -9 15 -24 0 -15 7 -26 20 -29 20 -5 22 -3 25 43 2 14 3 31 4 38 1 8 9
10 25 6 27 -6 66 24 66 51 0 18 16 20 23 3 4 -8 6 -7 6 4 1 21 114 121 149
131 15 4 40 5 56 2 35 -6 56 9 56 42 0 15 4 22 11 18 6 -4 13 3 16 15 6 22 7
22 20 5 12 -17 13 -17 13 -2 0 9 4 17 8 17 13 0 62 98 62 125 0 22 4 25 38 26
20 1 43 1 51 0 7 -2 10 2 7 8 -4 5 -2 12 4 16 5 3 10 1 10 -4 0 -21 15 -10 31
23 9 18 15 47 13 64 -3 24 0 30 11 26 11 -4 15 1 16 17 l1 24 8 -25 c6 -17 8
-19 9 -7 1 10 9 21 19 24 9 4 25 17 34 29 15 18 27 21 80 20 47 -1 67 3 80 16
9 9 14 19 11 22 -4 3 14 6 38 6 34 0 40 -3 29 -11 -11 -8 -9 -8 10 -3 14 4 33
8 43 8 12 0 17 9 17 33 0 46 19 82 47 89 13 4 27 3 30 0 4 -4 13 17 20 46 8
29 21 58 30 65 9 7 20 29 24 50 l8 38 -3 -45 c-1 -25 -6 -53 -10 -62 -6 -13
-4 -18 7 -18 9 0 17 -11 20 -28 4 -26 4 -26 6 4 1 41 34 63 80 56 23 -3 32 -1
27 6 -4 6 -13 9 -20 6 -7 -3 -16 2 -19 10 -6 16 7 71 21 89 5 7 12 28 16 47 8
42 28 90 38 90 4 0 8 601 8 1335 l0 1335 -20 0 c-12 0 -18 4 -15 10 4 6 -2 7
-17 1 -13 -4 -27 -18 -33 -29 -5 -12 -16 -22 -23 -22 -15 0 -31 -39 -25 -60 4
-13 4 -13 -6 0 -10 13 -12 13 -20 0 -21 -31 -30 17 -17 85 3 17 3 22 0 12 -4
-12 -12 -16 -25 -12 -40 13 -59 -3 -59 -51 l0 -44 -44 0 c-26 0 -46 5 -49 13
-4 9 -6 9 -6 -1 -1 -7 6 -15 15 -19 26 -10 -5 -23 -57 -23 -45 0 -79 -20 -79
-48 0 -6 -13 -17 -30 -26 -16 -8 -30 -10 -30 -5 0 5 -18 9 -40 9 -38 0 -40 2
-40 30 0 17 -5 30 -11 30 -6 0 -8 -7 -5 -16 3 -9 6 -24 6 -35 0 -15 8 -19 38
-20 l37 -1 -33 -9 c-22 -7 -33 -16 -31 -27 3 -35 -1 -53 -12 -47 -5 4 -9 19
-7 33 2 21 -1 27 -17 27 -11 0 -19 -6 -17 -12 1 -7 -2 -13 -7 -13 -5 0 -14
-13 -21 -30 -15 -35 -28 -38 -39 -8 l-8 22 -5 -22 c-5 -19 -13 -22 -51 -22
-32 0 -47 -5 -51 -16 -4 -10 -14 -14 -25 -11 -12 3 -22 -1 -25 -10 -4 -10 -11
-11 -24 -4 -28 15 -57 7 -60 -17 -3 -17 -10 -22 -33 -22 -25 0 -29 4 -29 29 0
16 -6 32 -12 35 -7 3 -1 3 15 0 21 -5 27 -2 27 11 0 11 5 15 15 11 12 -4 14 0
9 20 -6 23 -4 25 15 19 15 -4 21 -2 21 9 0 10 -6 13 -15 10 -11 -5 -15 1 -15
24 0 18 6 32 16 36 8 3 13 10 10 14 -3 5 4 15 15 22 10 8 19 24 19 36 0 12 7
25 16 28 8 3 13 10 9 15 -3 5 -1 12 4 16 5 3 8 14 6 25 -2 11 0 20 5 20 13 0
21 33 10 44 -5 5 -10 17 -10 26 0 13 2 13 10 0 7 -11 11 -4 16 28 4 23 11 42
16 42 6 0 7 7 4 16 -3 8 -2 12 4 9 6 -3 10 3 10 15 0 12 7 28 16 37 8 9 13 22
10 29 -3 7 -1 16 4 19 15 9 12 25 -3 19 -15 -6 -39 19 -43 44 -11 69 -35 176
-40 181 -3 3 -5 -3 -4 -14 5 -43 1 -49 -18 -32 -14 13 -36 16 -105 14 -48 -1
-87 1 -87 6 0 4 -7 7 -15 7 -10 0 -15 10 -15 28 -1 24 -2 25 -11 9 -6 -10 -9
-28 -6 -39 3 -11 2 -30 -3 -42 -6 -17 -15 -22 -40 -20 -35 2 -52 14 -32 21 10
4 10 8 1 19 -9 11 -8 14 5 14 9 0 16 7 16 15 0 8 5 25 11 38 10 23 16 24 127
27 65 2 131 3 147 3 17 0 24 2 18 4 -17 6 -16 24 2 59 12 24 15 26 16 9 0 -16
4 -14 15 10 l14 30 -5 -32 c-4 -17 -2 -34 4 -38 6 -3 11 -15 11 -26 0 -10 4
-19 9 -19 5 0 11 -20 13 -45 2 -25 0 -45 -4 -45 -5 0 -8 -11 -8 -25 0 -14 4
-25 9 -25 5 0 13 -9 16 -20 3 -11 13 -26 21 -34 8 -8 15 -26 16 -40 4 -40 23
-30 23 12 0 20 4 50 8 66 7 26 6 28 -13 23 -17 -4 -21 -1 -20 16 4 39 0 70 -7
64 -9 -10 -33 13 -33 31 0 8 3 12 6 9 9 -9 44 32 44 51 0 8 6 12 15 8 17 -6
22 29 6 39 -11 6 -41 -21 -41 -38 0 -7 -10 -1 -21 13 l-21 25 5 -28 c3 -22 2
-25 -9 -16 -9 8 -14 34 -14 79 0 97 0 97 -70 92 -50 -4 -60 -2 -60 12 0 9 -8
16 -20 16 -17 0 -20 7 -20 40 0 39 -1 40 -37 41 -37 1 -38 1 -10 11 28 10 37
42 15 51 -10 4 -10 8 1 15 11 8 11 18 3 48 l-10 39 -2 -40 -1 -40 -16 32 c-20
40 -36 47 -52 21 -10 -16 -10 -18 0 -12 9 5 10 2 6 -10 -4 -10 -7 -20 -7 -23
0 -3 -9 4 -20 17 -11 13 -20 29 -20 37 0 7 -11 13 -25 13 -22 0 -25 -4 -25
-40 0 -22 5 -40 10 -40 6 0 10 -7 10 -15 0 -8 -4 -15 -10 -15 -5 0 -10 7 -10
15 0 8 -7 15 -15 15 -11 0 -15 11 -15 40 0 29 -4 40 -15 40 -19 0 -21 -76 -2
-83 9 -4 8 -8 -3 -16 -22 -16 -25 -14 -44 31 -13 28 -16 46 -9 57 5 9 6 27 3
41 l-7 25 -8 -27 c-10 -40 -25 -34 -26 10 0 20 -2 51 -3 67 -4 47 5 52 95 44
104 -9 109 -5 109 95 0 44 4 76 10 76 6 0 10 -33 10 -79 0 -58 4 -82 15 -91 9
-7 19 -9 23 -5 4 4 1 10 -5 12 -16 6 -19 253 -3 253 6 0 10 4 10 9 0 5 -18 12
-40 16 -26 4 -40 12 -40 22 0 10 -6 14 -18 11 -17 -5 -18 0 -14 43 l5 49 -32
0 c-18 0 -31 5 -31 13 0 6 -5 19 -10 27 -9 13 -11 13 -20 0 -9 -13 -11 -13
-20 0 -15 23 -12 38 8 43 9 3 0 5 -20 6 -24 1 -40 -4 -46 -15 -7 -12 -10 -13
-19 -2 -19 23 -42 88 -32 88 6 0 10 25 9 58 0 31 0 71 0 87 1 77 -2 91 -25
101 -13 7 -27 8 -32 3 -14 -14 -65 38 -65 66 0 19 -5 25 -17 23 -9 -2 -16 -10
-16 -18 0 -9 -10 -15 -24 -15 -16 0 -27 -8 -33 -24 l-8 -23 -19 23 c-25 33
-14 124 17 150 12 9 22 26 22 37 0 21 -23 46 -33 35 -12 -12 -7 -23 10 -23 16
0 15 -2 -2 -19 -17 -17 -28 -18 -80 -12 -51 6 -56 9 -33 15 15 4 31 5 37 2 15
-10 22 10 12 36 l-10 23 0 -22 c-1 -13 -6 -23 -12 -23 -8 0 -10 18 -6 60 4 37
3 60 -3 60 -6 0 -10 9 -10 20 0 11 -5 20 -12 20 -6 0 -4 7 5 18 24 26 21 35
-9 29 -20 -3 -28 0 -31 14 -7 24 -19 24 -27 2 -3 -10 -13 -29 -20 -42 -13 -21
-15 -22 -20 -5 -3 11 -3 -22 -1 -72 2 -50 2 -94 -2 -98 -7 -7 -33 40 -33 60 0
8 5 14 10 14 6 0 10 19 9 43 -1 36 -2 38 -9 17 -6 -20 -8 -15 -9 25 0 36 2 46
9 35 7 -11 9 1 8 40 0 30 -3 43 -5 28 -2 -16 -9 -28 -14 -28 -5 0 -10 -37 -11
-82 l-1 -83 -6 87 c-6 93 -14 115 -26 71 -3 -15 -11 -31 -16 -34 -11 -6 -28
-107 -30 -179 l-2 -45 -7 40 c-7 37 -7 35 -9 -23 0 -35 -8 -76 -16 -92 -8 -15
-18 -53 -21 -84 -4 -31 -11 -56 -16 -56 -5 0 -8 -5 -6 -12 3 -7 -6 -48 -19
-92 -13 -44 -23 -94 -23 -110 0 -22 -3 -27 -9 -17 -6 9 -11 -11 -16 -58 -4
-39 -13 -77 -20 -84 -8 -8 -14 -51 -17 -116 -2 -56 -9 -105 -14 -109 -6 -4
-14 -29 -19 -57 -30 -194 -34 -217 -48 -233 -5 -7 -12 -39 -14 -70 -2 -31 -8
-58 -13 -60 -6 -2 -10 -14 -10 -26 0 -12 -9 -56 -20 -97 -11 -41 -20 -98 -20
-127 0 -29 -6 -63 -14 -75 -8 -12 -17 -55 -21 -95 -4 -39 -11 -74 -15 -77 -4
-3 -11 -29 -15 -60 -3 -30 -11 -57 -16 -60 -5 -4 -9 -76 -9 -161 0 -88 -4
-154 -9 -154 -5 0 -13 -10 -17 -22 -11 -33 -11 -33 -13 -90 -2 -40 -5 -48 -11
-33 -6 15 -9 5 -9 -36 -1 -53 -18 -109 -33 -109 -5 0 -8 -35 -9 -77 0 -49 -3
-71 -8 -58 -6 14 -10 -1 -16 -52 -4 -40 -11 -71 -15 -68 -5 3 -11 -18 -15 -47
-3 -29 -8 -66 -10 -83 -2 -16 -4 -38 -4 -48 -1 -10 -5 -15 -11 -12 -6 4 -10
-13 -10 -44 0 -28 -4 -51 -10 -51 -5 0 -10 -11 -10 -24 0 -14 -4 -28 -10 -31
-5 -3 -10 -34 -10 -68 0 -44 -3 -58 -10 -47 -5 8 -10 11 -10 5 -5 -125 -14
-213 -26 -250 -2 -5 -8 -33 -13 -62 -11 -58 -28 -96 -40 -89 -17 11 -65 -75
-62 -111 1 -11 -3 -24 -8 -28 -7 -4 -11 4 -11 18 0 14 -7 30 -15 37 -8 7 -15
20 -15 29 0 16 -42 61 -56 61 -11 0 -35 -30 -33 -42 6 -48 -1 -58 -38 -57 -21
0 -32 3 -25 6 6 2 12 22 12 43 0 33 -3 39 -20 37 -11 -1 -20 -6 -20 -12 0 -17
-57 -95 -64 -88 -4 4 -9 -3 -13 -15 -3 -12 -12 -22 -20 -22 -15 0 -15 34 1
115 l6 30 -13 -28 c-7 -15 -16 -24 -20 -21 -4 4 -7 0 -7 -8 0 -9 -7 -21 -15
-28 -11 -9 -19 -9 -35 3 -15 10 -18 16 -8 19 9 3 6 8 -8 16 -26 14 -63 -9 -61
-37 1 -11 4 -19 7 -19 3 1 12 -2 20 -5 8 -3 24 -8 35 -10 12 -3 8 -5 -12 -6
-17 0 -34 -5 -37 -10 -9 -15 -45 -1 -51 20 -4 13 -16 19 -35 19 -22 0 -29 5
-32 22 -2 12 -8 23 -14 25 -15 5 -25 -34 -15 -60 8 -22 -5 -67 -20 -67 -4 0
-5 -10 -2 -22 3 -13 3 -20 0 -17 -4 3 -9 16 -11 30 -2 13 -5 25 -7 27 -1 1 -2
8 -3 15 -2 18 -51 20 -66 3 -7 -9 -22 -16 -34 -17 -20 0 -20 -1 -1 -9 17 -6
14 -9 -18 -15 -27 -5 -37 -12 -33 -21 3 -8 1 -14 -4 -14 -6 0 -10 5 -10 10 0
6 -8 10 -17 8 -12 -2 -18 3 -17 15 1 9 -5 17 -13 17 -8 0 -11 -5 -7 -11 4 -7
-1 -10 -12 -7 -12 2 -19 12 -19 28 0 28 -20 35 -58 21 -17 -7 -27 -18 -27 -30
0 -15 8 -21 38 -24 23 -2 11 -4 -30 -5 -37 -1 -70 -6 -73 -12 -8 -14 -85 -13
-85 1 0 6 7 9 15 5 8 -3 15 -1 15 4 0 6 -14 10 -32 10 l-31 0 22 19 c13 11 29
17 37 14 15 -5 19 14 8 41 -5 13 -9 14 -20 5 -10 -8 -14 -8 -14 0 0 6 -13 11
-30 11 -16 0 -30 -4 -30 -10 0 -5 -7 -10 -15 -10 -9 0 -25 -23 -39 -53 -23
-52 -24 -53 -61 -49 -41 5 -55 -7 -55 -48 0 -19 6 -26 20 -27 14 -1 20 4 20
18 0 10 5 19 10 19 15 0 12 -37 -5 -53 -7 -8 -17 -27 -21 -42 l-7 -28 -16 34
c-13 28 -27 38 -74 54 -32 12 -55 24 -52 27 4 3 -8 9 -25 13 -19 4 -36 3 -43
-4 -6 -6 -27 -11 -46 -11 -27 0 -32 -3 -21 -10 13 -8 12 -10 -2 -10 -13 0 -18
-8 -18 -26 0 -17 4 -23 13 -18 8 6 8 3 -2 -9 -7 -9 -29 -20 -50 -23 -20 -4
-30 -9 -23 -11 6 -3 9 -10 5 -16 -8 -12 -9 -17 -12 -37 0 -5 -11 -10 -23 -10
-17 0 -19 3 -9 9 11 7 11 9 0 14 -11 4 -11 6 0 6 11 1 10 5 -5 16 -26 20 -47
19 -67 -5 -9 -11 -12 -20 -7 -20 6 0 9 -3 9 -7 -5 -29 4 -42 32 -48 18 -4 28
-10 22 -14 -5 -3 -6 -19 -2 -36 4 -16 8 -23 9 -15 1 8 5 4 9 -10 4 -14 13 -24
19 -23 6 2 9 -3 6 -11 -3 -9 6 -18 27 -25 41 -14 52 -14 42 1 -4 7 -6 24 -4
37 2 15 -1 21 -8 17 -6 -4 -11 -2 -11 3 0 6 5 11 11 11 8 0 7 5 -2 16 -18 22
-20 44 -3 44 8 0 14 -5 14 -11 0 -6 7 -9 14 -6 9 4 17 -2 21 -13 4 -11 18 -23
33 -26 54 -12 62 -16 62 -29 0 -24 16 -25 40 -5 13 11 32 21 44 21 12 1 33 3
49 5 l27 3 0 -175 c0 -181 -5 -205 -48 -241 -19 -16 -24 -97 -8 -128 7 -14 16
-21 20 -17 4 4 6 -9 4 -28 -2 -28 -8 -36 -26 -38 -13 -2 -30 2 -38 8 -11 10
-14 9 -15 -6 -1 -11 -3 -26 -3 -34 -3 -31 -18 -60 -32 -61 -8 -1 -18 -3 -24
-4 -5 -1 -16 -3 -24 -4 -7 0 -16 -10 -19 -21 -3 -12 -14 -20 -26 -20 -12 0
-20 -3 -19 -7 3 -15 -14 -43 -27 -43 -7 0 -15 -7 -19 -15 -3 -8 -15 -15 -26
-15 -11 0 -20 -7 -20 -15 0 -21 -18 -19 -23 3 -4 13 -5 11 -6 -5 -1 -13 -7
-23 -16 -23 -8 0 -15 -7 -15 -15 0 -8 -5 -15 -11 -15 -6 0 -9 -6 -6 -14 4 -11
-33 -14 -214 -15 -143 -1 -219 2 -219 9 0 5 -11 10 -25 10 -14 0 -25 5 -25 10
0 6 -9 10 -20 10 -11 0 -20 4 -20 8 0 5 -7 9 -15 10 -8 1 -22 3 -30 4 -11 1
-15 13 -15 42 0 47 -7 60 -35 64 -10 2 -24 11 -31 19 -6 9 -16 13 -22 9 -7 -4
-12 -3 -12 2 0 13 -43 23 -50 12 -3 -5 -6 20 -7 56 0 35 -4 77 -8 92 -7 25 -8
25 -15 7 -7 -16 -9 -13 -10 15 -1 19 -4 29 -7 23 -6 -17 -23 0 -46 46 -28 57
-19 230 12 232 12 0 11 2 -4 9 -17 7 -17 9 -2 9 9 1 17 8 17 16 0 8 7 15 15
15 9 0 15 9 15 23 0 35 23 77 43 77 9 0 17 7 17 15 0 9 7 18 15 21 8 4 15 17
15 30 0 13 5 24 10 24 6 0 10 7 10 15 0 8 5 15 10 15 6 0 10 7 10 16 0 12 7
15 26 11 25 -5 26 -4 18 32 -10 44 -11 167 -1 177 3 4 13 1 21 -5 8 -7 20 -10
27 -6 6 4 15 1 20 -6 6 -10 9 -4 9 18 0 18 7 36 15 40 9 6 16 30 19 68 6 82 6
83 17 57 5 -13 7 -28 3 -33 -3 -5 1 -9 10 -9 8 0 16 6 19 13 3 9 7 9 19 -1 27
-22 58 33 59 105 1 53 2 55 9 20 8 -44 20 -60 20 -27 0 19 2 20 15 10 12 -10
15 -10 16 1 1 8 3 26 4 40 3 20 -1 26 -13 25 -9 0 -17 5 -16 12 1 6 2 29 3 50
l1 37 20 -25 c10 -14 15 -27 9 -28 -22 -8 6 -22 44 -22 46 0 77 24 77 60 0 12
7 23 15 26 8 4 15 16 16 28 0 11 3 15 6 9 7 -19 20 -16 26 6 6 24 54 17 62 -8
6 -21 63 -40 98 -34 18 4 33 -4 56 -26 17 -17 38 -31 46 -31 7 0 17 -9 20 -21
4 -11 13 -18 20 -16 7 3 18 0 24 -6 16 -16 91 -18 91 -2 0 7 7 15 15 19 10 3
15 19 15 44 0 21 5 43 10 48 6 6 10 43 8 85 -2 56 -6 73 -17 71 -8 -2 -11 3
-8 13 5 12 -3 15 -41 17 -40 1 -42 2 -12 5 29 3 38 10 47 34 7 17 16 28 22 25
9 -6 9 12 -1 39 -7 21 25 93 43 98 26 7 24 27 -1 22 -18 -3 -20 2 -20 41 0 32
4 44 15 44 8 0 15 -6 15 -12 0 -9 3 -9 9 1 7 11 10 10 14 -5 4 -15 5 -14 7 6
1 14 2 28 1 33 0 4 6 7 14 7 11 0 15 12 15 50 0 35 4 52 15 56 8 3 17 15 21
26 5 16 8 18 15 7 13 -21 11 48 -2 73 -9 16 -13 18 -20 7 -18 -30 -19 2 0 38
11 21 20 32 21 26 0 -24 20 -13 20 11 0 13 7 26 15 29 10 5 13 20 11 63 -3 45
0 60 15 75 11 11 19 26 19 34 0 9 6 12 15 9 13 -5 15 13 15 125 0 91 -3 131
-11 131 -16 0 -5 91 13 104 8 6 15 30 16 56 0 25 4 64 8 88 5 35 3 42 -10 42
-10 0 -16 9 -16 24 0 25 -22 51 -33 39 -4 -3 -7 8 -7 26 0 18 -3 30 -8 27 -4
-2 -6 14 -4 36 3 28 1 39 -7 34 -14 -9 -15 31 0 72 8 24 7 35 -6 55 -8 13 -13
32 -9 41 4 10 -2 23 -16 34 -19 15 -21 22 -11 40 18 34 14 90 -9 109 -24 21
-27 63 -4 63 25 0 -3 30 -43 46 -31 13 -32 17 -35 76 -2 35 -7 63 -13 63 -20
1 -43 21 -46 40 -3 25 10 57 21 50 5 -3 11 8 15 25 4 17 11 28 16 24 5 -3 9 6
9 20 0 14 -4 28 -10 31 -5 3 -10 15 -10 26 0 10 -3 18 -7 18 -25 -4 -43 3 -43
16 0 8 -6 15 -13 15 -24 0 -47 36 -48 76 l-2 39 -6 -35 c-4 -23 -9 -31 -14
-22 -10 14 -1 80 13 97 5 6 8 100 7 210 -2 183 -4 204 -24 245 -12 25 -35 77
-51 115 -35 88 -115 201 -198 283 -35 34 -64 70 -64 79 0 24 -40 83 -56 83 -8
0 -14 5 -14 11 0 5 -13 15 -30 20 -16 6 -30 16 -29 22 1 21 15 48 24 50 6 1 9
45 8 102 -2 55 0 94 3 87 7 -16 34 3 34 24 0 8 4 14 9 14 5 0 11 10 13 23 2
12 7 20 12 19 12 -5 29 26 21 38 -9 14 4 70 16 70 6 0 7 -5 3 -12 -4 -7 -3 -8
4 -4 7 4 12 14 12 22 0 8 7 14 15 14 13 0 21 25 16 53 0 4 7 7 17 8 15 0 14 1
-3 8 -17 7 -16 9 9 15 16 4 26 10 22 13 -3 4 2 15 11 25 13 14 14 21 5 30 -18
18 -14 42 9 56 12 7 18 16 15 19 -3 4 0 13 7 21 6 9 -10 0 -38 -20 -94 -66
-191 -108 -319 -138 -130 -30 -335 -28 -480 5 -60 13 -112 22 -117 19 -5 -2
-17 4 -29 16 -11 11 -28 20 -37 20 -10 1 -38 11 -62 24 -38 20 -50 22 -83 13
-21 -5 -38 -16 -38 -23 0 -22 -17 -16 -25 9 -6 19 -8 19 -12 5 -9 -34 -26 -19
-22 19 0 4 -8 11 -18 15 -11 5 1 7 32 5 43 -3 46 -2 23 6 -33 13 -38 32 -7 22
15 -5 19 -4 15 4 -4 6 -14 11 -22 11 -8 0 -14 5 -14 10 0 6 -6 10 -13 10 -7 0
-20 8 -29 18 -8 9 -31 28 -49 42 -76 56 -268 248 -318 318 -32 43 -41 50 -41
31z m-62 -49 c-14 -4 -41 -4 -60 0 -28 7 -24 8 27 8 46 0 54 -2 33 -8z m307
-418 c1 -29 -3 -52 -8 -52 -5 0 -4 -6 2 -13 6 -8 8 -17 4 -20 -3 -4 3 -7 15
-7 12 0 22 -4 22 -10 0 -9 34 -18 93 -24 15 -2 27 1 27 5 0 5 8 9 18 9 10 0
22 3 25 7 4 3 18 8 32 9 19 2 25 -2 25 -17 0 -26 18 -24 23 4 3 13 5 7 6 -16
0 -21 -3 -36 -8 -33 -12 8 -23 -36 -12 -47 5 -5 20 -5 32 -1 30 10 48 7 66
-12 8 -8 22 -14 31 -14 15 0 15 -2 2 -10 -12 -8 -11 -10 6 -10 12 0 32 -8 45
-18 13 -11 37 -22 52 -26 22 -5 26 -10 18 -20 -6 -7 -8 -16 -4 -20 4 -4 0 -4
-9 -1 -9 4 -25 2 -35 -5 -16 -10 -16 -10 4 -5 31 8 41 -15 15 -36 -28 -22 -27
-27 0 -31 15 -2 24 -13 30 -35 5 -19 15 -33 23 -33 8 0 15 -4 15 -9 0 -5 15
-12 33 -15 55 -11 103 -64 60 -67 -15 -1 -14 -2 2 -7 l20 -5 -20 -8 c-13 -5 4
-8 48 -8 46 -1 66 -5 62 -12 -4 -6 3 -13 15 -16 17 -4 19 -8 8 -15 -8 -6 0 -8
27 -4 26 3 35 2 25 -4 -10 -6 2 -11 40 -16 50 -7 52 -9 25 -15 -29 -6 -29 -7
-4 -8 36 -1 90 -21 84 -31 -3 -4 5 -10 16 -13 12 -3 18 -10 14 -16 -3 -6 -11
-9 -16 -6 -5 4 -9 0 -9 -8 0 -29 -123 -39 -134 -12 -3 8 -18 15 -34 15 -32 0
-52 16 -52 41 0 10 -9 21 -20 24 -11 3 -20 14 -21 23 0 14 -2 13 -9 -3 -8 -19
-9 -19 -9 -1 -1 11 -4 16 -7 13 -4 -4 -14 2 -24 13 -11 13 -32 20 -66 22 -33
2 -48 7 -47 16 2 8 -13 12 -55 11 -31 -1 -45 -4 -29 -6 42 -7 32 -20 -18 -26
-25 -2 -54 -12 -64 -21 -10 -9 -25 -16 -34 -16 -8 0 -22 -6 -29 -14 -8 -8 -23
-16 -34 -18 -14 -4 -11 -7 16 -15 l35 -11 -42 -1 c-36 -1 -41 -4 -37 -18 5
-15 4 -16 -5 -3 -6 8 -11 25 -11 38 0 12 -4 22 -10 22 -15 0 -12 -33 6 -68 12
-25 14 -45 8 -89 -4 -32 -7 -62 -6 -66 1 -5 -6 -8 -15 -7 -36 4 -52 0 -49 -12
11 -35 14 -78 7 -78 -5 0 -12 14 -16 30 -4 17 -13 30 -21 30 -16 0 -19 -16 -4
-25 12 -7 13 -35 2 -35 -12 0 -32 69 -25 86 4 10 -3 14 -26 14 -16 0 -36 6
-43 13 -9 10 -17 11 -35 3 -18 -9 -23 -19 -23 -51 0 -77 -21 -112 -35 -58 -5
21 -8 24 -16 12 -6 -9 -9 -10 -9 -1 0 6 -9 12 -20 12 -11 0 -19 -6 -17 -12 1
-7 -8 -14 -20 -16 -13 -2 -23 -9 -23 -15 0 -7 -4 -6 -11 3 -5 8 -8 47 -7 85 2
57 0 70 -12 70 -10 0 -14 -9 -13 -30 2 -22 0 -26 -7 -15 -5 8 -10 25 -10 37 0
12 -5 25 -12 29 -8 5 -9 -5 -6 -34 6 -38 5 -40 -10 -25 -13 13 -16 39 -17 142
0 116 -2 126 -19 129 -26 5 -195 -9 -178 -15 17 -6 15 -23 -3 -23 -8 0 -15 -4
-15 -10 0 -5 -11 -10 -25 -10 -14 0 -24 3 -24 8 4 21 -5 30 -41 42 -27 9 -40
19 -40 32 0 21 15 24 24 6 5 -10 7 -10 12 1 4 9 9 10 13 3 12 -19 34 4 26 27
-5 15 -10 19 -18 12 -10 -8 -130 -16 -173 -12 -7 1 -12 21 -12 50 0 46 3 51
32 65 17 8 43 18 59 21 15 4 27 13 27 20 0 17 44 45 70 45 11 0 20 5 20 10 0
6 4 10 10 10 5 0 21 11 36 24 50 45 64 56 64 50 0 -3 20 9 45 27 25 18 45 38
45 46 0 7 14 27 30 45 17 17 30 37 30 44 0 8 12 17 28 20 33 8 59 34 68 68 3
14 12 26 20 26 8 0 11 6 8 15 -4 11 6 16 45 21 28 4 51 11 51 16 0 5 6 8 13 5
7 -2 12 -23 12 -55z m180 -31 c3 -5 1 -12 -5 -16 -5 -3 -10 1 -10 9 0 18 6 21
15 7z m172 -77 c-3 -3 -12 -4 -19 -1 -8 3 -5 6 6 6 11 1 17 -2 13 -5z m6 -21
c-7 -2 -19 -2 -25 0 -7 3 -2 5 12 5 14 0 19 -2 13 -5z m132 0 c-11 -3 -24 -11
-28 -19 -5 -9 -21 -13 -42 -11 -44 3 -40 20 6 25 19 2 36 6 38 8 2 2 14 3 25
3 20 -1 20 -1 1 -6z m-1382 -30 c-7 -2 -21 -2 -30 0 -10 3 -4 5 12 5 17 0 24
-2 18 -5z m1495 -108 c10 -9 -6 -17 -47 -22 -32 -4 -41 -2 -41 9 0 8 3 18 6
21 7 7 74 1 82 -8z m97 -5 c-3 -5 -13 -10 -21 -10 -8 0 -14 5 -14 10 0 6 9 10
21 10 11 0 17 -4 14 -10z m582 -22 c-3 -7 -5 -2 -5 12 0 14 2 19 5 13 2 -7 2
-19 0 -25z m-2200 -190 c-3 -8 -6 -5 -6 6 -1 11 2 17 5 13 3 -3 4 -12 1 -19z
m2111 -64 l-3 -39 -5 47 c-3 26 -1 43 3 39 5 -5 7 -26 5 -47z m-498 -14 c0 -5
-4 -10 -10 -10 -5 0 -10 5 -10 10 0 6 5 10 10 10 6 0 10 -4 10 -10z m304 -60
c-10 -4 -23 -5 -28 -2 -5 3 -1 9 10 12 10 4 23 5 28 2 5 -3 1 -9 -10 -12z
m153 -52 c-3 -7 -5 -2 -5 12 0 14 2 19 5 13 2 -7 2 -19 0 -25z m-102 -138 c-3
-5 -11 -10 -16 -10 -6 0 -7 5 -4 10 3 6 11 10 16 10 6 0 7 -4 4 -10z m-748
-132 c-2 -39 -47 -55 -47 -17 0 14 5 19 15 16 8 -4 17 -2 20 3 3 5 -3 11 -12
13 -14 4 -13 5 4 6 17 1 21 -4 20 -21z m-1117 -92 c0 -3 -4 -8 -10 -11 -5 -3
-10 -1 -10 4 0 6 5 11 10 11 6 0 10 -2 10 -4z m-43 -22 c-3 -3 -12 -4 -19 -1
-8 3 -5 6 6 6 11 1 17 -2 13 -5z m4923 -14 c0 -5 -5 -10 -11 -10 -8 0 -10 -17
-7 -50 4 -42 2 -52 -13 -61 -17 -9 -19 -6 -19 23 0 69 12 108 31 108 11 0 19
-4 19 -10z m-4410 -55 c0 -8 -4 -15 -10 -15 -5 0 -10 7 -10 15 0 8 5 15 10 15
6 0 10 -7 10 -15z m4790 -178 c11 -5 9 -6 -4 -4 -11 1 -21 9 -23 17 -3 10 -2
11 4 4 4 -6 15 -14 23 -17z m-4987 -4 c-7 -2 -19 -2 -25 0 -7 3 -2 5 12 5 14
0 19 -2 13 -5z m4966 -27 c-2 -2 -22 -6 -44 -9 -28 -5 -34 -4 -20 3 19 8 73
14 64 6z m-112 -108 c-2 -13 -4 -3 -4 22 0 25 2 35 4 23 2 -13 2 -33 0 -45z
m-5867 32 c0 -5 -4 -10 -10 -10 -5 0 -10 5 -10 10 0 6 5 10 10 10 6 0 10 -4
10 -10z m5745 -151 c10 -30 0 -33 -13 -4 -6 14 -7 25 -2 25 5 0 12 -9 15 -21z
m51 -26 c-10 -26 -18 -8 -9 23 5 21 8 24 11 11 2 -10 1 -25 -2 -34z m124 43
c0 -3 -4 -8 -10 -11 -5 -3 -10 -1 -10 4 0 6 5 11 10 11 6 0 10 -2 10 -4z
m-5607 -263 c-7 -2 -19 -2 -25 0 -7 3 -2 5 12 5 14 0 19 -2 13 -5z m5987 -21
c0 -5 10 -8 21 -8 12 1 24 -5 26 -11 3 -9 -10 -13 -47 -13 -48 0 -50 1 -40 20
10 20 40 28 40 12z m-163 -84 c-3 -8 -6 -5 -6 6 -1 11 2 17 5 13 3 -3 4 -12 1
-19z m-77 -228 c0 -5 -4 -10 -10 -10 -5 0 -10 5 -10 10 0 6 5 10 10 10 6 0 10
-4 10 -10z m-3913 -32 c-3 -8 -6 -5 -6 6 -1 11 2 17 5 13 3 -3 4 -12 1 -19z
m3987 -13 c-4 -8 -11 -12 -16 -9 -6 4 -5 10 3 15 19 12 19 11 13 -6z m-3974
-19 c0 -8 -4 -18 -10 -21 -5 -3 -10 3 -10 14 0 12 5 21 10 21 6 0 10 -6 10
-14z m4280 -175 c22 -6 23 -8 7 -14 -22 -8 -67 1 -67 14 0 10 23 10 60 0z
m-190 -45 c0 -2 -7 -9 -15 -16 -12 -10 -15 -10 -15 4 0 9 7 16 15 16 8 0 15
-2 15 -4z m170 -16 c0 -13 7 -20 20 -20 16 0 20 -7 20 -35 0 -34 1 -35 40 -35
22 0 40 -4 40 -10 0 -5 18 -10 39 -10 30 0 40 -4 43 -17 9 -39 -3 -53 -43 -53
-32 0 -39 -3 -39 -20 0 -13 -7 -20 -20 -20 -17 0 -20 7 -20 40 0 33 3 40 20
40 11 0 20 7 20 15 0 11 -11 15 -35 15 -39 0 -84 39 -85 73 0 10 -8 17 -20 17
-13 0 -20 7 -20 20 0 13 7 20 20 20 13 0 20 -7 20 -20z m-763 -32 c-3 -7 -5
-2 -5 12 0 14 2 19 5 13 2 -7 2 -19 0 -25z m188 23 c3 -5 1 -12 -5 -16 -5 -3
-10 1 -10 9 0 18 6 21 15 7z m-127 -19 c2 -7 -6 -12 -17 -12 -21 0 -27 11 -14
24 9 9 26 2 31 -12z m-391 -24 c-3 -8 -6 -5 -6 6 -1 11 2 17 5 13 3 -3 4 -12
1 -19z m1330 -110 c-3 -8 -6 -5 -6 6 -1 11 2 17 5 13 3 -3 4 -12 1 -19z m-807
2 c0 -5 -4 -10 -10 -10 -5 0 -10 5 -10 10 0 6 5 10 10 10 6 0 10 -4 10 -10z
m-270 -40 c0 -5 -2 -10 -4 -10 -3 0 -8 5 -11 10 -3 6 -1 10 4 10 6 0 11 -4 11
-10z m335 -120 c-28 -12 -45 -12 -45 0 0 6 15 10 33 9 27 0 29 -2 12 -9z m80
0 c3 -5 1 -10 -4 -10 -6 0 -11 5 -11 10 0 6 2 10 4 10 3 0 8 -4 11 -10z m169
-98 c26 -5 49 -29 41 -42 -3 -5 3 -10 14 -10 12 0 21 -7 21 -15 0 -8 -4 -15
-10 -15 -5 0 -10 -9 -10 -20 0 -14 7 -20 24 -20 13 0 26 4 28 9 2 5 17 12 33
15 17 4 24 3 17 0 -6 -3 -10 -10 -6 -15 3 -5 0 -9 -7 -9 -24 0 7 -22 43 -30
l33 -8 -42 -1 c-23 -1 -45 4 -48 9 -3 6 -20 10 -36 10 -33 0 -59 20 -59 44 0
12 -10 16 -39 16 -31 0 -40 4 -44 22 -3 12 -2 29 4 39 5 10 10 35 10 56 l2 38
6 -35 c4 -23 12 -36 25 -38z m231 -2 c3 -5 1 -10 -4 -10 -6 0 -11 5 -11 10 0
6 2 10 4 10 3 0 8 -4 11 -10z m-145 -26 c0 -2 -7 -4 -15 -4 -8 0 -15 4 -15 10
0 5 7 7 15 4 8 -4 15 -8 15 -10z m47 -10 c-3 -3 -12 -4 -19 -1 -8 3 -5 6 6 6
11 1 17 -2 13 -5z m306 -20 c-8 -21 -33 -17 -33 5 0 14 5 18 19 14 12 -3 17
-11 14 -19z m42 -150 c0 -68 -3 -94 -12 -94 -7 0 -13 5 -13 11 0 6 -7 8 -16 5
-19 -7 -64 3 -64 15 0 14 28 11 33 -3 10 -28 16 1 7 32 -9 31 -3 60 7 33 3 -7
11 -13 18 -13 8 0 16 -10 18 -22 l4 -23 2 23 c0 12 -8 30 -19 39 -11 10 -20
25 -20 34 0 9 9 19 20 22 20 5 28 27 10 27 -5 0 -10 4 -10 9 0 5 8 7 18 5 15
-4 17 -18 17 -100z m-505 76 c0 -5 -2 -10 -4 -10 -3 0 -8 5 -11 10 -3 6 -1 10
4 10 6 0 11 -4 11 -10z m-4526 -85 c3 -9 0 -15 -9 -15 -9 0 -12 6 -9 15 4 8 7
15 9 15 2 0 5 -7 9 -15z m5051 -25 c3 -5 1 -10 -4 -10 -6 0 -11 5 -11 10 0 6
2 10 4 10 3 0 8 -4 11 -10z m-4858 -26 c-9 -9 -28 6 -21 18 4 6 10 6 17 -1 6
-6 8 -13 4 -17z m4060 -106 c-3 -8 -6 -5 -6 6 -1 11 2 17 5 13 3 -3 4 -12 1
-19z m-4283 4 c3 -5 -1 -9 -9 -9 -8 0 -12 4 -9 9 3 4 7 8 9 8 2 0 6 -4 9 -8z
m4313 -24 c-3 -7 -5 -2 -5 12 0 14 2 19 5 13 2 -7 2 -19 0 -25z m188 6 c9 -14
15 -28 13 -30 -6 -6 -48 35 -48 46 0 18 18 10 35 -16z m-4472 -26 c7 -20 -12
-48 -28 -42 -15 6 -20 35 -8 47 11 11 31 8 36 -5z m4847 -150 c0 -49 -5 -47
-13 5 -3 20 -2 37 4 37 5 0 9 -19 9 -42z m-2953 -30 c-3 -8 -6 -5 -6 6 -1 11
2 17 5 13 3 -3 4 -12 1 -19z m3616 15 c-7 -2 -19 -2 -25 0 -7 3 -2 5 12 5 14
0 19 -2 13 -5z m-678 -43 c3 -5 0 -10 -7 -10 -7 0 -24 -3 -38 -6 l-25 -5 25
15 c30 18 37 19 45 6z m-65 -161 c0 -7 -6 -4 -15 7 -19 25 -19 40 0 20 8 -8
15 -20 15 -27z m-160 -49 c0 -5 -5 -10 -11 -10 -5 0 -7 5 -4 10 3 6 8 10 11
10 2 0 4 -4 4 -10z m217 -72 c-3 -7 -5 -2 -5 12 0 14 2 19 5 13 2 -7 2 -19 0
-25z m-17 -15 c0 -7 -4 -13 -10 -13 -5 0 -10 12 -10 28 0 21 2 24 10 12 5 -8
10 -21 10 -27z m-3320 7 c0 -5 -4 -10 -10 -10 -5 0 -10 5 -10 10 0 6 5 10 10
10 6 0 10 -4 10 -10z m57 -20 c1 -15 0 -18 -3 -7 -3 9 -9 17 -14 17 -5 0 -7
-7 -4 -15 4 -9 0 -15 -10 -15 -17 0 -20 9 -10 35 10 24 39 14 41 -15z m-1495
-78 c-18 -6 -14 -30 7 -49 11 -9 17 -21 14 -26 -3 -5 1 -13 8 -18 10 -6 11 -9
2 -9 -7 0 -13 -9 -13 -20 0 -11 4 -20 9 -20 5 0 7 -8 4 -19 -3 -10 0 -22 6
-25 14 -9 15 -56 1 -56 -5 0 -10 12 -10 26 0 19 -4 25 -14 21 -10 -4 -18 2
-22 16 -4 12 -15 28 -25 35 -14 10 -17 20 -13 39 5 19 2 30 -10 39 -16 11 -14
15 14 48 18 20 37 33 43 29 8 -5 7 -8 -1 -11z m1188 -12 c0 -5 -2 -10 -4 -10
-3 0 -8 5 -11 10 -3 6 -1 10 4 10 6 0 11 -4 11 -10z m54 -25 c3 -8 15 -15 26
-15 17 0 20 -4 15 -20 -5 -15 -3 -18 9 -14 19 7 21 -9 4 -36 -7 -10 -9 -23 -5
-27 5 -4 12 -1 17 7 8 13 12 11 25 -7 22 -31 43 -29 51 4 6 23 8 24 19 10 7
-10 17 -17 23 -17 17 0 34 -38 27 -60 -9 -29 10 -24 23 5 17 36 15 53 -5 58
-15 4 -15 5 2 6 36 2 48 -12 34 -43 -9 -19 -9 -30 -2 -37 14 -14 6 -39 -12
-39 -7 0 -16 -6 -18 -12 -4 -10 -8 -9 -16 2 -9 13 -11 13 -11 -1 0 -9 -6 -29
-14 -44 -13 -25 -15 -25 -25 -8 -14 24 -14 3 0 -53 6 -25 9 -47 7 -50 -3 -2
-28 1 -57 7 -40 8 -55 8 -66 -1 -12 -10 -15 -9 -15 4 0 12 -10 16 -42 15 l-43
-1 35 -13 35 -13 -46 -1 c-32 -1 -49 -6 -53 -16 -7 -20 -46 -20 -46 1 0 8 -4
13 -9 10 -5 -3 -12 1 -15 10 -3 8 -10 13 -15 10 -5 -3 -17 6 -26 21 -12 18
-14 28 -7 31 7 2 12 10 12 17 0 19 37 61 46 52 5 -4 2 -12 -6 -17 -9 -6 -10
-10 -3 -10 6 0 15 5 18 10 4 6 11 8 16 5 5 -4 9 4 10 17 1 23 1 22 8 -2 12
-45 20 0 12 73 -1 4 -6 7 -12 7 -6 0 -8 -7 -4 -17 5 -14 3 -15 -6 -6 -13 13
-4 63 12 63 6 0 13 -9 16 -20 10 -39 56 -17 68 33 4 14 2 28 -4 31 -6 4 -11
16 -11 27 0 10 -6 19 -12 20 -7 0 -4 4 7 9 17 7 17 9 3 9 -25 1 -24 41 1 41
10 0 21 -7 25 -15z m-1187 -67 c-3 -7 -5 -2 -5 12 0 14 2 19 5 13 2 -7 2 -19
0 -25z m1313 -38 c0 -5 -5 -10 -11 -10 -5 0 -7 5 -4 10 3 6 8 10 11 10 2 0 4
-4 4 -10z m234 -17 c-9 -36 -11 -38 -28 -24 -11 10 -18 8 -35 -11 l-21 -22 2
38 c3 34 5 37 28 32 14 -2 32 -1 40 5 21 12 21 12 14 -18z m-577 -45 c-3 -7
-5 -2 -5 12 0 14 2 19 5 13 2 -7 2 -19 0 -25z m-1217 -34 c0 -22 5 -36 15 -39
51 -16 51 -17 30 -25 -11 -5 -14 -9 -7 -9 19 -1 16 -81 -3 -81 -14 0 -19 -12
-16 -32 3 -18 -17 -6 -22 13 -3 12 -9 19 -14 16 -4 -3 -6 19 -5 49 4 61 -10
88 -39 79 -11 -4 -19 -3 -19 0 0 15 30 35 52 35 17 0 19 3 9 9 -7 5 -10 14 -7
20 13 20 26 1 26 -35z m-70 -64 c0 -5 -5 -10 -11 -10 -5 0 -7 5 -4 10 3 6 8
10 11 10 2 0 4 -4 4 -10z m1307 -42 c-3 -8 -6 -5 -6 6 -1 11 2 17 5 13 3 -3 4
-12 1 -19z m-27 -63 c8 0 18 5 22 10 5 6 8 3 8 -6 0 -17 -26 -34 -47 -30 -7 1
-13 -8 -13 -20 0 -15 4 -19 16 -15 8 3 12 2 9 -4 -13 -21 -33 -9 -38 23 -5 39
1 59 17 50 6 -4 18 -8 26 -8z m530 -25 c0 -5 -4 -10 -10 -10 -5 0 -10 5 -10
10 0 6 5 10 10 10 6 0 10 -4 10 -10z m-460 -82 c0 -5 -11 -8 -25 -8 -14 0 -25
4 -25 9 0 5 11 8 25 7 14 0 25 -4 25 -8z m-160 -18 c0 -11 -4 -20 -9 -20 -5 0
-7 9 -4 20 3 11 7 20 9 20 2 0 4 -9 4 -20z m657 -12 c-3 -7 -5 -2 -5 12 0 14
2 19 5 13 2 -7 2 -19 0 -25z m-3738 -79 c-15 -9 -32 -2 -24 11 3 5 13 6 21 3
12 -4 13 -8 3 -14z m39 -26 c0 -10 3 -26 7 -36 7 -16 4 -18 -21 -15 -24 2 -29
7 -26 28 4 35 41 57 40 23z m1869 -45 c-3 -7 -5 -2 -5 12 0 14 2 19 5 13 2 -7
2 -19 0 -25z m-3909 -45 c50 -22 60 -31 70 -64 8 -27 9 -46 1 -68 -8 -23 -8
-38 3 -61 7 -16 15 -30 19 -30 16 0 51 -67 55 -103 l4 -42 -14 37 c-22 59 -43
86 -88 109 -49 25 -134 27 -179 5 -44 -22 -25 0 27 30 41 24 50 44 20 44 -7 0
-22 11 -35 23 -18 20 -20 28 -11 52 7 19 7 31 0 40 -8 10 -4 18 16 34 34 27
42 26 112 -6z m315 -168 c-3 -9 -8 -14 -10 -11 -3 3 -2 9 2 15 9 16 15 13 8
-4z m269 -17 c-7 -7 -12 -8 -12 -2 0 14 12 26 19 19 2 -3 -1 -11 -7 -17z
m6402 3 c7 -11 -3 -41 -13 -41 -4 0 -8 11 -9 25 -2 25 11 34 22 16z m-734 -71
c0 -5 -10 -10 -22 -10 -19 0 -20 2 -8 10 19 13 30 13 30 0z m110 -10 c0 -5 -4
-10 -10 -10 -5 0 -10 5 -10 10 0 6 5 10 10 10 6 0 10 -4 10 -10z m-457 -17
c-7 -2 -21 -2 -30 0 -10 3 -4 5 12 5 17 0 24 -2 18 -5z m-1829 -153 l-7 -25
-7 30 c-12 47 -11 97 0 90 6 -3 11 6 12 22 1 15 3 1 5 -32 2 -32 1 -71 -3 -85z
m-4287 78 c-3 -7 -5 -2 -5 12 0 14 2 19 5 13 2 -7 2 -19 0 -25z m7 -66 c36
-108 140 -163 232 -123 58 26 57 9 -2 -19 -75 -37 -165 -9 -217 68 -20 30 -44
122 -32 122 2 0 11 -21 19 -48z m353 -4 c-3 -7 -5 -2 -5 12 0 14 2 19 5 13 2
-7 2 -19 0 -25z m5632 -70 c-1 -24 -3 -35 -6 -25 -2 9 -9 17 -14 17 -13 0 -11
18 4 35 17 20 17 20 16 -27z m-42 10 c-3 -8 -6 -5 -6 6 -1 11 2 17 5 13 3 -3
4 -12 1 -19z m60 -30 c-2 -13 -4 -5 -4 17 -1 22 1 32 4 23 2 -10 2 -28 0 -40z
m-1717 1 c0 -19 -5 -29 -15 -29 -15 0 -22 50 -9 63 12 12 24 -4 24 -34z m1410
-3 c0 -3 -4 -8 -10 -11 -5 -3 -10 -1 -10 4 0 6 5 11 10 11 6 0 10 -2 10 -4z
m-3129 -69 c-10 -9 -11 -8 -5 6 3 10 9 15 12 12 3 -3 0 -11 -7 -18z m46 -49
c-3 -8 -6 -5 -6 6 -1 11 2 17 5 13 3 -3 4 -12 1 -19z m93 -7 c0 -6 -4 -13 -10
-16 -5 -3 -10 1 -10 9 0 9 5 16 10 16 6 0 10 -4 10 -9z m296 -4 c3 -2 1 -22
-4 -43 -7 -33 -12 -39 -32 -39 -21 0 -25 5 -25 28 1 15 -3 27 -7 27 -4 0 -8
10 -8 21 0 19 4 21 36 16 20 -3 38 -8 40 -10z m-262 -12 c-4 -8 -8 -15 -10
-15 -2 0 -4 7 -4 15 0 8 4 15 10 15 5 0 7 -7 4 -15z m86 -15 c0 -5 -5 -10 -11
-10 -5 0 -7 5 -4 10 3 6 8 10 11 10 2 0 4 -4 4 -10z m77 -22 c-3 -8 -6 -5 -6
6 -1 11 2 17 5 13 3 -3 4 -12 1 -19z m1030 -173 c0 -27 -5 -44 -11 -42 -12 4
-13 31 -1 65 11 32 13 28 12 -23z m440 39 c-3 -3 -12 -4 -19 -1 -8 3 -5 6 6 6
11 1 17 -2 13 -5z m-98 -122 c9 -3 9 -7 0 -18 -8 -10 -8 -14 0 -14 7 0 11 -21
11 -55 0 -30 -4 -55 -10 -55 -5 0 -10 -5 -10 -11 0 -5 4 -8 9 -5 5 3 12 -23
16 -59 3 -36 10 -65 15 -65 5 0 8 -13 8 -30 -1 -16 -5 -30 -10 -30 -5 0 -14
-12 -21 -27 -12 -26 -12 -25 -23 28 -6 32 -8 117 -6 208 4 125 3 152 -8 146
-8 -5 -11 -4 -6 3 3 6 2 13 -4 17 -11 7 -14 68 -3 79 4 4 12 -19 19 -51 6 -31
17 -59 23 -61z m104 81 c3 -15 3 -61 -1 -102 -4 -60 -3 -73 8 -66 10 6 12 -1
7 -36 -5 -40 -4 -42 9 -25 13 19 14 18 14 -11 0 -44 -10 -69 -21 -51 -7 10 -9
10 -9 1 0 -25 -26 -12 -44 22 -15 27 -19 54 -18 124 1 50 6 99 11 110 6 11 11
29 11 40 0 31 27 25 33 -6z m1663 -80 c-11 -11 -17 4 -9 23 7 18 8 18 11 1 2
-10 1 -21 -2 -24z m-2109 -10 c-3 -10 -5 -4 -5 12 0 17 2 24 5 18 2 -7 2 -21
0 -30z m-355 -126 c-7 -8 -15 -35 -18 -61 -8 -54 -19 -67 -28 -31 -4 14 -13
25 -21 25 -20 0 -19 36 0 44 8 3 15 12 15 21 0 18 41 37 54 24 5 -5 4 -14 -2
-22z m2435 11 c-3 -8 -6 -5 -6 6 -1 11 2 17 5 13 3 -3 4 -12 1 -19z m-2430
-80 c-2 -13 -4 -3 -4 22 0 25 2 35 4 23 2 -13 2 -33 0 -45z m193 -13 c0 -77
17 -136 32 -113 6 10 8 8 8 -4 0 -10 7 -18 15 -18 9 0 15 10 15 26 0 35 17 64
39 64 15 0 20 11 25 61 5 45 10 59 18 51 16 -16 13 -94 -5 -128 -8 -16 -17
-75 -21 -134 -9 -135 -8 -130 -17 -130 -4 0 -7 -17 -7 -37 1 -81 0 -83 -32
-83 -19 0 -30 -5 -30 -14 0 -8 -11 -13 -31 -12 -25 1 -30 5 -26 22 3 17 -1 20
-20 16 -21 -4 -23 -10 -23 -56 0 -68 -18 -88 -38 -43 -20 44 -24 97 -8 103 16
6 21 128 7 165 -9 23 -9 23 -16 4 -17 -49 -28 -69 -32 -57 -3 6 -11 12 -19 12
-10 0 -14 14 -14 55 0 41 4 55 14 55 8 0 21 3 30 6 11 4 19 -2 24 -17 8 -19
10 -15 16 29 6 47 25 81 27 50 1 -7 4 -2 9 12 l7 25 11 -25 c10 -24 11 -23 11
13 1 25 5 36 12 31 8 -4 9 15 4 70 -5 54 -4 76 4 76 7 0 11 -26 11 -75z m6320
15 c0 -5 -4 -10 -10 -10 -5 0 -10 5 -10 10 0 6 5 10 10 10 6 0 10 -4 10 -10z
m-5953 -87 c-3 -10 -5 -4 -5 12 0 17 2 24 5 18 2 -7 2 -21 0 -30z m6052 -35
c2 -27 -24 -21 -37 8 -8 17 -9 23 -1 19 6 -4 13 3 17 16 l6 24 7 -25 c4 -14 7
-33 8 -42z m-6039 -2 c0 -10 -7 -12 -22 -8 -21 5 -21 6 -2 13 10 4 20 8 22 8
1 1 2 -5 2 -13z m-595 -26 c-1 -17 -4 -33 -7 -35 -4 -5 -4 36 0 58 5 19 9 4 7
-23z m597 -40 c-1 -19 -5 -53 -8 -74 -6 -39 -6 -39 -20 -15 -8 15 -13 18 -14
9 0 -13 -1 -13 -10 0 -6 9 -5 19 3 29 9 11 9 15 0 18 -7 3 -13 11 -13 18 0 7
6 16 13 18 6 3 3 6 -7 6 -19 1 -19 1 -1 15 10 7 28 13 39 12 18 -1 21 -7 18
-36z m5848 31 c0 -12 -20 -25 -27 -18 -7 7 6 27 18 27 5 0 9 -4 9 -9z m-5946
-10 c3 -5 -1 -14 -9 -21 -13 -10 -15 -9 -15 9 0 21 14 28 24 12z m6036 -12 c0
-5 -4 -9 -8 -9 -5 0 -9 7 -9 15 0 8 4 12 9 9 4 -3 8 -9 8 -15z m-6153 -31 c-3
-8 -6 -5 -6 6 -1 11 2 17 5 13 3 -3 4 -12 1 -19z m100 -20 c-3 -8 -6 -5 -6 6
-1 11 2 17 5 13 3 -3 4 -12 1 -19z m163 0 c0 7 5 10 10 7 6 -3 10 -31 10 -61
0 -30 3 -54 8 -54 4 0 7 -14 8 -30 1 -27 -2 -30 -26 -28 -22 2 -27 7 -26 25 0
13 4 23 8 23 4 0 2 15 -3 32 -13 45 -12 108 1 88 7 -11 10 -11 10 -2z m5890
-30 c0 -5 -4 -8 -10 -8 -5 0 -10 10 -10 23 0 18 2 19 10 7 5 -8 10 -18 10 -22z
m-6136 -10 c-4 -6 -10 -5 -15 3 -14 22 -10 33 6 19 8 -7 12 -17 9 -22z m-304
-105 c0 -15 -46 -18 -54 -4 -4 5 -4 16 0 24 4 12 10 12 30 3 13 -6 24 -17 24
-23z m-70 -43 c0 -5 -4 -10 -9 -10 -6 0 -13 5 -16 10 -3 6 1 10 9 10 9 0 16
-4 16 -10z m6237 -72 c-3 -8 -6 -5 -6 6 -1 11 2 17 5 13 3 -3 4 -12 1 -19z
m-5917 -58 c0 -25 -5 -40 -12 -40 -16 0 -20 62 -4 72 16 11 16 11 16 -32z
m5887 -12 c-3 -8 -6 -5 -6 6 -1 11 2 17 5 13 3 -3 4 -12 1 -19z m-6640 -10
c-3 -8 -6 -5 -6 6 -1 11 2 17 5 13 3 -3 4 -12 1 -19z m593 12 c0 -5 -4 -10
-10 -10 -5 0 -10 5 -10 10 0 6 5 10 10 10 6 0 10 -4 10 -10z m6053 -27 c3 -5
1 -17 -3 -28 -6 -17 -7 -16 -12 8 -5 25 5 37 15 20z m-6673 -38 c0 -14 -4 -25
-9 -25 -4 0 -6 11 -3 25 2 14 6 25 8 25 2 0 4 -11 4 -25z m6275 -163 c-4 -38
-5 -40 -14 -17 -5 12 -4 23 3 27 8 6 7 8 -1 8 -7 0 -13 7 -13 16 0 13 3 14 14
5 8 -7 13 -24 11 -39z m-35 -37 c0 -15 -29 -55 -41 -55 -5 0 -9 9 -9 20 0 11
5 20 11 20 6 0 9 6 6 13 -3 8 3 13 14 13 11 0 19 -5 19 -11z m5 -65 c3 -5 1
-10 -4 -10 -6 0 -11 5 -11 10 0 6 2 10 4 10 3 0 8 -4 11 -10z m-135 -30 c0 -5
-10 -10 -22 -10 -19 0 -20 2 -8 10 19 13 30 13 30 0z m-5210 -10 c0 -5 -2 -10
-4 -10 -3 0 -8 5 -11 10 -3 6 -1 10 4 10 6 0 11 -4 11 -10z m325 -19 c-3 -11
-1 -22 4 -25 5 -4 13 4 17 16 l7 22 17 -22 c16 -20 19 -20 25 -4 7 15 8 15 15
-3 12 -27 12 -47 1 -41 -16 10 -34 -23 -27 -49 5 -18 2 -27 -9 -31 -11 -5 -13
-10 -5 -19 12 -15 3 -25 -23 -25 -15 0 -18 5 -14 21 5 19 4 20 -19 4 -13 -8
-24 -11 -24 -5 0 5 5 10 10 10 6 0 10 7 10 15 0 8 -3 15 -7 15 -5 0 -7 24 -6
52 1 29 2 61 2 71 1 9 8 17 17 17 11 0 13 -6 9 -19z m118 -20 c3 -13 1 -18 -9
-14 -7 2 -10 11 -7 19 7 19 10 18 16 -5z m4737 -66 c-16 -19 -25 -19 -45 1
-15 15 -14 19 12 46 l28 29 9 -30 c6 -21 5 -35 -4 -46z m-133 -37 c-3 -8 -6
-5 -6 6 -1 11 2 17 5 13 3 -3 4 -12 1 -19z m123 2 c0 -5 -2 -10 -4 -10 -3 0
-8 5 -11 10 -3 6 -1 10 4 10 6 0 11 -4 11 -10z m-80 -40 c12 -8 9 -10 -12 -10
-15 0 -30 5 -33 10 -8 13 25 13 45 0z m-4886 -24 c8 3 11 -6 10 -23 -2 -41 -2
-41 -24 -8 -21 32 -27 56 -9 38 6 -6 17 -9 23 -7z m4771 -6 c4 -8 3 -11 -1 -8
-4 4 -15 3 -24 -2 -12 -7 -21 -6 -29 4 -14 16 -9 21 23 21 14 0 28 -7 31 -15z
m-4888 -37 c-3 -10 -5 -4 -5 12 0 17 2 24 5 18 2 -7 2 -21 0 -30z m-52 -125
c6 -4 0 -8 -12 -8 -16 0 -21 4 -16 15 3 9 8 12 12 8 3 -4 11 -11 16 -15z
m4765 -18 c0 -5 -4 -10 -10 -10 -5 0 -10 5 -10 10 0 6 5 10 10 10 6 0 10 -4
10 -10z m-40 -70 c0 -5 -4 -10 -10 -10 -5 0 -10 5 -10 10 0 6 5 10 10 10 6 0
10 -4 10 -10z m-5380 -220 c0 -5 -5 -10 -11 -10 -5 0 -7 5 -4 10 3 6 8 10 11
10 2 0 4 -4 4 -10z m5060 -184 c0 -3 -4 -8 -10 -11 -5 -3 -10 -1 -10 4 0 6 5
11 10 11 6 0 10 -2 10 -4z m-1193 -78 c-3 -8 -6 -5 -6 6 -1 11 2 17 5 13 3 -3
4 -12 1 -19z m453 -9 c-11 -8 -12 -12 -2 -16 6 -2 9 -9 6 -14 -3 -6 -11 -5
-20 2 -11 9 -11 15 -3 25 6 8 17 14 23 14 6 0 4 -5 -4 -11z m-760 -49 c0 -5
-4 -10 -10 -10 -5 0 -10 5 -10 10 0 6 5 10 10 10 6 0 10 -4 10 -10z m1075 0
c3 -5 -1 -10 -10 -10 -9 0 -13 5 -10 10 3 6 8 10 10 10 2 0 7 -4 10 -10z
m-450 -20 c3 -5 1 -10 -4 -10 -6 0 -11 5 -11 10 0 6 2 10 4 10 3 0 8 -4 11
-10z m65 -50 c0 -5 -4 -10 -10 -10 -5 0 -10 5 -10 10 0 6 5 10 10 10 6 0 10
-4 10 -10z m-1100 -20 c0 -5 -4 -10 -10 -10 -5 0 -10 5 -10 10 0 6 5 10 10 10
6 0 10 -4 10 -10z m-3193 -6 c-3 -3 -12 -4 -19 -1 -8 3 -5 6 6 6 11 1 17 -2
13 -5z m3166 -51 c-7 -2 -19 -2 -25 0 -7 3 -2 5 12 5 14 0 19 -2 13 -5z
m-3033 -13 c0 -5 -5 -10 -11 -10 -5 0 -7 5 -4 10 3 6 8 10 11 10 2 0 4 -4 4
-10z m2607 -82 c-3 -7 -5 -2 -5 12 0 14 2 19 5 13 2 -7 2 -19 0 -25z m-1504
-35 c-7 -2 -19 -2 -25 0 -7 3 -2 5 12 5 14 0 19 -2 13 -5z m-705 -30 c-10 -2
-26 -2 -35 0 -10 3 -2 5 17 5 19 0 27 -2 18 -5z m725 0 c-13 -2 -33 -2 -45 0
-13 2 -3 4 22 4 25 0 35 -2 23 -4z m534 -15 c-3 -8 -6 -5 -6 6 -1 11 2 17 5
13 3 -3 4 -12 1 -19z m43 12 c0 -5 -7 -10 -15 -10 -8 0 -15 5 -15 10 0 6 7 10
15 10 8 0 15 -4 15 -10z m-1373 -87 c-3 -10 -5 -4 -5 12 0 17 2 24 5 18 2 -7
2 -21 0 -30z"/>
<path d="M7360 9483 c0 -10 4 -14 8 -8 4 6 11 13 16 18 5 4 2 7 -7 7 -10 0
-17 -8 -17 -17z"/>
<path d="M7400 9490 c0 -5 5 -10 10 -10 6 0 10 5 10 10 0 6 -4 10 -10 10 -5 0
-10 -4 -10 -10z"/>
<path d="M7440 9490 c0 -5 5 -10 10 -10 6 0 10 5 10 10 0 6 -4 10 -10 10 -5 0
-10 -4 -10 -10z"/>
<path d="M7352 9430 c-7 -11 -11 -37 -11 -57 1 -21 3 -29 6 -18 2 11 7 31 10
45 6 25 6 25 13 -5 l8 -30 1 30 c1 43 -12 59 -27 35z"/>
<path d="M7730 9240 c0 -5 5 -10 10 -10 6 0 10 5 10 10 0 6 -4 10 -10 10 -5 0
-10 -4 -10 -10z"/>
<path d="M7640 6254 c0 -8 5 -12 10 -9 6 4 8 11 5 16 -9 14 -15 11 -15 -7z"/>
<path d="M9107 6014 c-4 -4 -7 -14 -7 -23 0 -11 3 -12 11 -4 6 6 10 16 7 23
-2 6 -7 8 -11 4z"/>
<path d="M5540 5614 c0 -8 5 -12 10 -9 6 3 10 10 10 16 0 5 -4 9 -10 9 -5 0
-10 -7 -10 -16z"/>
<path d="M3560 5471 c0 -11 -4 -23 -10 -26 -5 -3 -10 3 -10 14 0 12 -7 21 -15
21 -10 0 -15 -11 -15 -35 0 -19 0 -38 0 -42 0 -5 12 -12 26 -17 36 -12 55 8
28 29 -15 11 -16 14 -3 15 25 0 39 21 28 42 -13 24 -29 23 -29 -1z"/>
<path d="M7683 4575 c0 -22 2 -30 4 -17 2 12 2 30 0 40 -3 9 -5 -1 -4 -23z"/>
<path d="M7086 4248 c-5 -16 -11 -26 -15 -24 -4 3 -7 -3 -8 -12 -1 -9 -5 -30
-9 -46 -5 -21 -4 -27 5 -22 6 4 11 18 11 31 0 13 7 31 16 39 8 9 14 26 12 38
-4 22 -5 21 -12 -4z"/>
<path d="M7212 4170 c0 -19 2 -27 5 -17 2 9 2 25 0 35 -3 9 -5 1 -5 -18z"/>
<path d="M7015 3919 c-4 -6 -5 -12 -2 -15 2 -3 7 2 10 11 7 17 1 20 -8 4z"/>
<path d="M4930 10476 c0 -8 4 -17 9 -20 5 -4 7 3 4 14 -6 23 -13 26 -13 6z"/>
<path d="M4960 10467 c0 -9 13 -14 38 -14 20 0 28 2 17 4 -11 3 -24 9 -29 14
-14 13 -26 11 -26 -4z"/>
<path d="M4330 10401 c0 -6 4 -13 10 -16 6 -3 7 1 4 9 -7 18 -14 21 -14 7z"/>
<path d="M6070 10397 c-9 -7 -15 -21 -15 -32 0 -11 -4 -26 -9 -33 -15 -20 37
-10 59 11 15 16 16 19 2 30 -8 7 -16 17 -18 24 -3 9 -8 9 -19 0z"/>
<path d="M4389 10323 c16 -28 38 -53 45 -53 14 0 4 23 -20 45 -32 29 -38 31
-25 8z"/>
<path d="M4446 10271 c-7 -11 48 -59 84 -74 14 -6 33 -17 43 -26 9 -8 19 -12
22 -9 3 3 -9 16 -27 29 -18 13 -49 39 -69 57 -39 34 -45 37 -53 23z"/>
<path d="M4618 10143 c7 -3 16 -2 19 1 4 3 -2 6 -13 5 -11 0 -14 -3 -6 -6z"/>
<path d="M11720 9590 c0 -5 5 -10 11 -10 5 0 7 5 4 10 -3 6 -8 10 -11 10 -2 0
-4 -4 -4 -10z"/>
<path d="M11640 9540 c0 -22 2 -40 4 -40 2 0 6 18 8 40 2 22 0 40 -4 40 -5 0
-8 -18 -8 -40z"/>
<path d="M11655 9479 c-10 -15 3 -25 16 -12 7 7 7 13 1 17 -6 3 -14 1 -17 -5z"/>
<path d="M11655 9430 c-3 -5 -2 -10 4 -10 5 0 12 -15 14 -32 l4 -33 1 37 c2
37 -11 58 -23 38z"/>
<path d="M5167 9399 c-26 -15 -3 -40 30 -34 32 5 37 10 30 30 -7 17 -34 19
-60 4z"/>
<path d="M6258 9363 c7 -3 16 -2 19 1 4 3 -2 6 -13 5 -11 0 -14 -3 -6 -6z"/>
<path d="M11621 9354 c0 -11 3 -14 6 -6 3 7 2 16 -1 19 -3 4 -6 -2 -5 -13z"/>
<path d="M11917 9293 c-3 -5 -2 -15 3 -22 10 -17 43 -6 38 12 -6 15 -34 22
-41 10z"/>
<path d="M11876 9275 c4 -8 7 -15 9 -15 2 0 5 7 9 15 3 9 0 15 -9 15 -9 0 -12
-6 -9 -15z"/>
<path d="M12065 9140 c-3 -5 -1 -10 4 -10 6 0 11 5 11 10 0 6 -2 10 -4 10 -3
0 -8 -4 -11 -10z"/>
<path d="M12082 9100 c0 -14 2 -19 5 -12 2 6 2 18 0 25 -3 6 -5 1 -5 -13z"/>
<path d="M12012 9050 c-15 -25 -16 -76 -1 -86 8 -4 9 3 4 25 -5 24 -3 31 9 31
9 0 16 -8 16 -20 0 -11 7 -20 15 -20 8 0 15 -3 15 -7 0 -5 4 -14 9 -22 7 -11
13 -10 32 8 17 16 20 24 11 33 -8 8 -15 8 -25 0 -11 -9 -18 -3 -36 33 -25 51
-31 53 -49 25z"/>
<path d="M6433 9053 c-18 -7 -16 -27 5 -52 20 -25 59 -33 87 -18 11 6 23 10
28 9 4 -1 7 5 7 13 0 8 -9 15 -20 15 -10 0 -24 9 -30 20 -10 19 -47 26 -77 13z"/>
<path d="M11505 9040 c-3 -5 -1 -10 4 -10 6 0 11 5 11 10 0 6 -2 10 -4 10 -3
0 -8 -4 -11 -10z"/>
<path d="M13495 9030 c-3 -5 -1 -10 4 -10 6 0 11 5 11 10 0 6 -2 10 -4 10 -3
0 -8 -4 -11 -10z"/>
<path d="M12081 9014 c0 -11 3 -14 6 -6 3 7 2 16 -1 19 -3 4 -6 -2 -5 -13z"/>
<path d="M13450 8967 c0 -14 5 -29 10 -32 7 -4 8 3 4 22 -9 38 -14 42 -14 10z"/>
<path d="M13431 8954 c0 -11 3 -14 6 -6 3 7 2 16 -1 19 -3 4 -6 -2 -5 -13z"/>
<path d="M6780 8919 c0 -5 5 -7 10 -4 6 3 10 8 10 11 0 2 -4 4 -10 4 -5 0 -10
-5 -10 -11z"/>
<path d="M6168 8883 c7 -3 16 -2 19 1 4 3 -2 6 -13 5 -11 0 -14 -3 -6 -6z"/>
<path d="M13410 8874 c0 -8 -4 -13 -9 -10 -5 4 -7 -3 -4 -14 8 -29 18 -24 21
10 1 17 0 30 -3 30 -3 0 -5 -7 -5 -16z"/>
<path d="M5958 8853 c7 -3 16 -2 19 1 4 3 -2 6 -13 5 -11 0 -14 -3 -6 -6z"/>
<path d="M6888 8843 c6 -2 18 -2 25 0 6 3 1 5 -13 5 -14 0 -19 -2 -12 -5z"/>
<path d="M12175 8841 c-37 -8 -40 -35 -4 -39 22 -3 27 2 31 22 3 15 5 25 4 25
0 -1 -14 -4 -31 -8z"/>
<path d="M5628 8775 c-6 -14 -15 -25 -20 -25 -4 0 -8 -6 -8 -14 0 -14 66 -30
83 -19 5 3 7 21 5 39 -2 19 1 36 7 38 5 2 -5 5 -23 5 -25 1 -35 -4 -44 -24z"/>
<path d="M5561 8684 c0 -11 3 -14 6 -6 3 7 2 16 -1 19 -3 4 -6 -2 -5 -13z"/>
<path d="M5580 8689 c0 -5 5 -7 10 -4 6 3 10 8 10 11 0 2 -4 4 -10 4 -5 0 -10
-5 -10 -11z"/>
<path d="M12160 8590 c0 -5 7 -7 15 -4 8 4 15 8 15 10 0 2 -7 4 -15 4 -8 0
-15 -4 -15 -10z"/>
<path d="M12363 8420 c0 -25 2 -35 4 -22 2 12 2 32 0 45 -2 12 -4 2 -4 -23z"/>
<path d="M5983 8363 c15 -2 39 -2 55 0 15 2 2 4 -28 4 -30 0 -43 -2 -27 -4z"/>
<path d="M13180 8315 c0 -5 5 -17 10 -25 5 -8 10 -10 10 -5 0 6 -5 17 -10 25
-5 8 -10 11 -10 5z"/>
<path d="M12558 8227 c-12 -28 -9 -165 3 -172 15 -10 15 -10 9 95 -3 56 -8 88
-12 77z"/>
<path d="M12483 8140 c0 -47 2 -66 4 -42 2 23 2 61 0 85 -2 23 -4 4 -4 -43z"/>
<path d="M12510 8130 c0 -53 4 -90 10 -90 6 0 10 37 10 90 0 53 -4 90 -10 90
-6 0 -10 -37 -10 -90z"/>
<path d="M13143 8180 c0 -25 2 -35 4 -22 2 12 2 32 0 45 -2 12 -4 2 -4 -23z"/>
<path d="M12200 8000 c0 -5 5 -10 10 -10 6 0 10 5 10 10 0 6 -4 10 -10 10 -5
0 -10 -4 -10 -10z"/>
<path d="M13051 7904 c0 -11 3 -14 6 -6 3 7 2 16 -1 19 -3 4 -6 -2 -5 -13z"/>
<path d="M12992 7830 c0 -14 2 -19 5 -12 2 6 2 18 0 25 -3 6 -5 1 -5 -13z"/>
<path d="M12522 7828 c3 -7 13 -15 23 -17 17 -3 17 -2 3 13 -20 19 -31 21 -26
4z"/>
<path d="M12992 7780 c0 -14 2 -19 5 -12 2 6 2 18 0 25 -3 6 -5 1 -5 -13z"/>
<path d="M12888 7773 c6 -2 18 -2 25 0 6 3 1 5 -13 5 -14 0 -19 -2 -12 -5z"/>
<path d="M12959 7758 c-6 -23 -6 -58 1 -58 7 0 20 33 20 53 0 6 -19 11 -21 5z"/>
<path d="M12538 7743 c7 -3 16 -2 19 1 4 3 -2 6 -13 5 -11 0 -14 -3 -6 -6z"/>
<path d="M12928 7674 c-5 -4 -8 -20 -8 -36 0 -22 -6 -31 -27 -39 -19 -7 -23
-13 -15 -21 6 -6 8 -16 5 -24 -2 -7 0 -20 5 -30 8 -14 11 -12 23 14 7 17 17
28 21 26 4 -3 10 7 14 20 7 30 -7 101 -18 90z"/>
<path d="M12840 7630 c0 -5 12 -10 26 -10 14 0 23 4 19 10 -3 6 -15 10 -26 10
-10 0 -19 -4 -19 -10z"/>
<path d="M12811 7484 c0 -11 3 -14 6 -6 3 7 2 16 -1 19 -3 4 -6 -2 -5 -13z"/>
<path d="M12850 7485 c0 -8 5 -15 10 -15 6 0 10 7 10 15 0 8 -4 15 -10 15 -5
0 -10 -7 -10 -15z"/>
<path d="M12660 7430 c0 -5 5 -10 10 -10 6 0 10 5 10 10 0 6 -4 10 -10 10 -5
0 -10 -4 -10 -10z"/>
<path d="M12820 7400 c0 -10 -7 -23 -15 -30 -16 -14 -21 -60 -6 -60 5 0 12 8
14 18 3 12 5 9 6 -8 1 -22 2 -23 17 -9 8 9 17 34 19 57 2 33 -1 41 -16 45 -13
4 -19 0 -19 -13z"/>
<path d="M7541 7267 c-14 -18 -5 -47 23 -69 28 -23 31 -22 44 7 15 32 15 35 2
35 -5 0 -10 -10 -10 -22 0 -31 -18 -10 -22 26 -3 34 -20 43 -37 23z"/>
<path d="M12807 7273 c-4 -3 -7 -11 -7 -17 0 -6 5 -5 12 2 6 6 9 14 7 17 -3 3
-9 2 -12 -2z"/>
<path d="M7635 7190 c-3 -5 -1 -10 4 -10 6 0 11 5 11 10 0 6 -2 10 -4 10 -3 0
-8 -4 -11 -10z"/>
<path d="M4875 7100 c3 -5 -3 -10 -15 -10 -12 0 -18 -4 -15 -10 11 -19 85 -9
85 11 0 11 -23 7 -32 -6 -4 -6 -8 -2 -8 8 0 9 -5 17 -11 17 -5 0 -7 -4 -4 -10z"/>
<path d="M4934 7059 c-3 -5 2 -9 10 -9 9 0 16 -4 16 -10 0 -5 7 -7 15 -4 8 4
15 12 15 19 0 14 -47 17 -56 4z"/>
<path d="M5010 7059 c0 -5 5 -7 10 -4 6 3 10 8 10 11 0 2 -4 4 -10 4 -5 0 -10
-5 -10 -11z"/>
<path d="M7563 6980 c0 -25 2 -35 4 -22 2 12 2 32 0 45 -2 12 -4 2 -4 -23z"/>
<path d="M7530 6980 c0 -5 5 -10 10 -10 6 0 10 5 10 10 0 6 -4 10 -10 10 -5 0
-10 -4 -10 -10z"/>
<path d="M13370 6906 c0 -9 5 -16 10 -16 6 0 10 4 10 9 0 6 -4 13 -10 16 -5 3
-10 -1 -10 -9z"/>
<path d="M13141 6848 c-1 -19 4 -28 14 -28 9 0 15 9 15 23 0 16 -3 19 -9 8 -7
-11 -10 -10 -14 5 -3 13 -5 11 -6 -8z"/>
<path d="M5330 6826 c0 -2 7 -6 15 -10 8 -3 15 -1 15 4 0 6 -7 10 -15 10 -8 0
-15 -2 -15 -4z"/>
<path d="M7352 6675 c0 -16 2 -22 5 -12 2 9 2 23 0 30 -3 6 -5 -1 -5 -18z"/>
<path d="M7332 6640 c0 -14 2 -19 5 -12 2 6 2 18 0 25 -3 6 -5 1 -5 -13z"/>
<path d="M12735 6580 c-3 -5 -1 -10 4 -10 6 0 11 5 11 10 0 6 -2 10 -4 10 -3
0 -8 -4 -11 -10z"/>
<path d="M9491 6554 c0 -11 3 -14 6 -6 3 7 2 16 -1 19 -3 4 -6 -2 -5 -13z"/>
<path d="M5118 6553 c7 -3 16 -2 19 1 4 3 -2 6 -13 5 -11 0 -14 -3 -6 -6z"/>
<path d="M5315 5790 c-3 -5 -1 -10 4 -10 6 0 11 5 11 10 0 6 -2 10 -4 10 -3 0
-8 -4 -11 -10z"/>
<path d="M5372 5715 c0 -16 2 -22 5 -12 2 9 2 23 0 30 -3 6 -5 -1 -5 -18z"/>
<path d="M7530 5590 c0 -5 5 -10 11 -10 5 0 7 5 4 10 -3 6 -8 10 -11 10 -2 0
-4 -4 -4 -10z"/>
<path d="M7289 5493 c-1 -16 -2 -66 -3 -113 -1 -47 -8 -102 -15 -123 -9 -28
-10 -41 -2 -51 6 -7 8 -22 4 -31 -4 -13 -3 -16 5 -11 7 4 12 27 12 52 0 36 3
44 19 44 10 0 22 -8 26 -17 6 -15 9 -13 20 12 7 17 14 28 15 25 7 -22 13 -67
17 -139 3 -64 1 -93 -12 -120 -12 -27 -13 -43 -7 -61 9 -24 10 -24 17 12 4 21
12 36 19 35 6 -1 13 18 16 48 5 43 7 46 11 20 l6 -30 2 28 c0 16 4 26 9 24 4
-3 5 15 3 39 -2 29 -8 44 -17 44 -9 0 -14 11 -14 28 0 15 -5 33 -12 40 -9 9
-9 12 0 12 7 0 12 10 12 23 0 18 -2 19 -11 7 -8 -11 -12 -12 -16 -2 -2 6 -11
12 -19 12 -8 0 -14 7 -14 15 0 8 6 15 13 15 8 0 8 3 -2 9 -7 5 -16 32 -19 61
-3 34 -8 47 -13 38 -6 -8 -9 5 -9 35 0 40 -3 47 -20 47 -15 0 -20 -7 -21 -27z"/>
<path d="M7183 5295 c0 -22 2 -30 4 -17 2 12 2 30 0 40 -3 9 -5 -1 -4 -23z"/>
<path d="M7030 5240 c0 -39 -3 -51 -10 -40 -7 10 -10 -15 -10 -79 0 -73 -4
-98 -16 -113 -20 -22 -7 -43 32 -51 23 -4 24 -3 10 18 -14 21 -13 24 4 37 17
11 21 28 25 118 3 61 1 94 -3 80 -9 -25 -9 -25 -16 7 -4 18 -5 36 -2 41 2 4 1
14 -5 22 -6 10 -9 -3 -9 -40z"/>
<path d="M9023 5273 c9 -2 25 -2 35 0 9 3 1 5 -18 5 -19 0 -27 -2 -17 -5z"/>
<path d="M6820 5103 c0 -106 -4 -153 -10 -143 -15 23 -12 -1 6 -53 17 -49 34
-58 61 -31 12 12 13 20 5 39 -8 18 -8 28 1 37 7 7 13 24 13 38 1 14 4 59 7
100 3 46 2 60 -2 37 -4 -20 -11 -41 -16 -45 -4 -4 -5 7 -2 24 3 17 3 42 0 55
l-7 24 -7 -25 c-5 -17 -7 -4 -8 39 -1 60 -2 63 -16 45 -13 -16 -14 -16 -9 -1
3 9 1 17 -5 17 -8 0 -11 -49 -11 -157z"/>
<path d="M7490 5253 c0 -4 5 -15 10 -23 8 -13 10 -13 10 2 0 9 -4 20 -10 23
-5 3 -10 3 -10 -2z"/>
<path d="M7220 5230 c0 -5 5 -10 11 -10 5 0 7 5 4 10 -3 6 -8 10 -11 10 -2 0
-4 -4 -4 -10z"/>
<path d="M7175 5179 c-8 -34 -4 -41 26 -46 17 -3 19 1 14 18 -5 14 -2 25 6 30
11 7 10 9 -3 9 -10 0 -18 5 -18 10 0 23 -19 8 -25 -21z"/>
<path d="M8722 5169 c-3 -37 21 -36 27 2 3 22 4 23 12 4 7 -19 8 -19 8 3 1 16
-5 22 -22 22 -18 0 -23 -6 -25 -31z"/>
<path d="M8430 5160 c0 -11 5 -20 10 -20 6 0 10 9 10 20 0 11 -4 20 -10 20 -5
0 -10 -9 -10 -20z"/>
<path d="M7302 5130 c0 -19 2 -27 5 -17 2 9 2 25 0 35 -3 9 -5 1 -5 -18z"/>
<path d="M8416 5093 c9 -52 14 -54 14 -5 0 23 -5 42 -10 42 -7 0 -8 -14 -4
-37z"/>
<path d="M8817 5083 c-11 -11 -8 -50 6 -61 9 -8 13 -1 15 29 2 36 -5 48 -21
32z"/>
<path d="M7506 5064 c-8 -21 -8 -24 3 -24 12 0 22 28 12 35 -5 3 -12 -2 -15
-11z"/>
<path d="M7312 5040 c0 -14 2 -19 5 -12 2 6 2 18 0 25 -3 6 -5 1 -5 -13z"/>
<path d="M7205 5020 c-3 -6 1 -7 9 -4 18 7 21 14 7 14 -6 0 -13 -4 -16 -10z"/>
<path d="M8655 5020 c-3 -6 1 -7 9 -4 18 7 21 14 7 14 -6 0 -13 -4 -16 -10z"/>
<path d="M8850 4992 c0 -5 6 -17 14 -27 13 -18 14 -17 14 8 0 16 -6 27 -14 27
-8 0 -14 -4 -14 -8z"/>
<path d="M7073 4932 c-3 -15 -10 -30 -15 -33 -5 -3 -12 -31 -15 -62 l-6 -57
30 0 30 0 9 84 c9 77 8 85 -8 90 -13 3 -20 -3 -25 -22z"/>
<path d="M9190 4905 c0 -8 9 -15 20 -15 11 0 20 7 20 15 0 8 -9 15 -20 15 -11
0 -20 -7 -20 -15z"/>
<path d="M9070 4872 c0 -12 4 -22 9 -22 10 0 9 26 -2 36 -4 4 -7 -2 -7 -14z"/>
<path d="M9235 4867 c-16 -18 -7 -44 18 -51 35 -9 47 -7 47 9 0 8 -6 14 -12
13 -8 -2 -12 6 -10 20 2 16 -2 22 -15 22 -10 -1 -23 -6 -28 -13z"/>
<path d="M7010 4830 c0 -11 5 -20 10 -20 6 0 10 9 10 20 0 11 -4 20 -10 20 -5
0 -10 -9 -10 -20z"/>
<path d="M7050 4750 c0 -5 5 -10 10 -10 6 0 10 5 10 10 0 6 -4 10 -10 10 -5 0
-10 -4 -10 -10z"/>
<path d="M6915 4740 c-3 -5 1 -10 9 -10 9 0 16 5 16 10 0 6 -4 10 -9 10 -6 0
-13 -4 -16 -10z"/>
<path d="M9281 4594 c0 -11 3 -14 6 -6 3 7 2 16 -1 19 -3 4 -6 -2 -5 -13z"/>
<path d="M5078 4363 c6 -2 18 -2 25 0 6 3 1 5 -13 5 -14 0 -19 -2 -12 -5z"/>
<path d="M8850 4201 c0 -6 5 -13 10 -16 6 -3 10 1 10 9 0 9 -4 16 -10 16 -5 0
-10 -4 -10 -9z"/>
<path d="M8768 4043 c6 -2 18 -2 25 0 6 3 1 5 -13 5 -14 0 -19 -2 -12 -5z"/>
<path d="M13518 4010 c-7 -24 -3 -38 8 -28 3 4 4 17 2 30 l-3 23 -7 -25z"/>
<path d="M13440 3950 c0 -5 12 -10 26 -10 14 0 23 4 19 10 -3 6 -15 10 -26 10
-10 0 -19 -4 -19 -10z"/>
<path d="M6670 3915 c0 -8 5 -15 10 -15 6 0 10 7 10 15 0 8 -4 15 -10 15 -5 0
-10 -7 -10 -15z"/>
<path d="M13326 3921 c-4 -7 -5 -15 -2 -18 9 -9 19 4 14 18 -4 11 -6 11 -12 0z"/>
<path d="M13396 3842 c-2 -4 -1 -14 5 -22 7 -12 9 -10 9 8 0 23 -5 28 -14 14z"/>
<path d="M13313 3780 c0 -25 2 -35 4 -22 2 12 2 32 0 45 -2 12 -4 2 -4 -23z"/>
<path d="M13342 3775 c0 -16 2 -22 5 -12 2 9 2 23 0 30 -3 6 -5 -1 -5 -18z"/>
<path d="M6631 3688 c-9 -15 -15 -18 -21 -9 -5 9 -9 5 -13 -11 -11 -38 -8 -78
6 -78 8 0 7 -4 -3 -10 -15 -9 -13 -11 13 -14 6 -1 13 -10 13 -21 1 -11 2 -25
3 -30 1 -6 17 -17 36 -24 45 -16 65 -2 64 43 0 17 -3 25 -6 19 -2 -7 -9 -13
-14 -13 -14 0 -11 28 4 33 9 4 9 6 0 6 -7 1 -16 19 -19 41 -4 22 -10 40 -15
40 -5 0 -14 11 -21 25 l-13 25 -14 -22z"/>
<path d="M13148 3684 c-7 -10 -8 -84 -2 -84 3 0 9 11 14 25 9 25 -2 77 -12 59z"/>
<path d="M12890 3596 c5 -13 6 -27 3 -30 -4 -3 0 -6 9 -6 11 0 13 8 10 30 -2
17 -10 30 -18 30 -10 0 -11 -6 -4 -24z"/>
<path d="M6990 3535 c0 -19 4 -35 10 -35 12 0 24 45 15 59 -13 22 -25 10 -25
-24z"/>
<path d="M6597 3533 c-3 -5 -1 -17 4 -28 7 -17 8 -17 8 8 1 27 -4 34 -12 20z"/>
<path d="M12656 3471 c-4 -5 -2 -12 3 -15 5 -4 12 -2 15 3 4 5 2 12 -3 15 -5
4 -12 2 -15 -3z"/>
<path d="M12725 3448 c12 -38 20 -39 27 -3 2 12 -3 21 -15 23 -16 3 -18 0 -12
-20z"/>
<path d="M7091 3380 c0 -32 2 -40 9 -29 5 9 6 28 0 45 -8 27 -8 26 -9 -16z"/>
<path d="M6930 3355 c0 -8 5 -15 10 -15 6 0 10 -7 10 -17 0 -9 2 -14 5 -11 9
8 -6 58 -16 58 -5 0 -9 -7 -9 -15z"/>
<path d="M12637 3349 c-3 -12 -1 -32 6 -43 11 -20 12 -19 15 13 4 40 -12 63
-21 30z"/>
<path d="M7260 3346 c0 -17 17 -31 49 -41 32 -10 18 13 -16 26 -13 5 -21 13
-18 19 3 5 1 10 -4 10 -6 0 -11 -6 -11 -14z"/>
<path d="M7347 3273 c-4 -3 -7 -16 -6 -27 0 -19 1 -19 10 3 10 24 8 36 -4 24z"/>
<path d="M7168 3013 c7 -3 16 -2 19 1 4 3 -2 6 -13 5 -11 0 -14 -3 -6 -6z"/>
<path d="M6661 2974 c0 -11 3 -14 6 -6 3 7 2 16 -1 19 -3 4 -6 -2 -5 -13z"/>
<path d="M6783 2870 c0 -30 2 -43 4 -27 2 15 2 39 0 55 -2 15 -4 2 -4 -28z"/>
<path d="M5958 2733 c-15 -4 -18 -16 -18 -64 0 -52 2 -59 20 -59 11 0 20 5 20
11 0 5 5 7 10 4 6 -4 10 7 10 27 0 22 3 28 9 20 7 -11 10 -10 15 3 9 23 8 25
-9 25 -8 0 -15 9 -15 20 0 20 -8 22 -42 13z"/>
<path d="M11862 2510 c0 -19 2 -27 5 -17 2 9 2 25 0 35 -3 9 -5 1 -5 -18z"/>
<path d="M11590 2424 c0 -30 4 -41 15 -41 19 0 19 36 0 61 -14 19 -15 17 -15
-20z"/>
<path d="M11282 2340 c0 -19 2 -27 5 -17 2 9 2 25 0 35 -3 9 -5 1 -5 -18z"/>
<path d="M10512 2320 c0 -14 2 -19 5 -12 2 6 2 18 0 25 -3 6 -5 1 -5 -13z"/>
<path d="M11410 2325 c0 -8 5 -15 10 -15 6 0 10 7 10 15 0 8 -4 15 -10 15 -5
0 -10 -7 -10 -15z"/>
<path d="M10531 2314 c0 -11 3 -14 6 -6 3 7 2 16 -1 19 -3 4 -6 -2 -5 -13z"/>
<path d="M6640 2280 c0 -5 5 -10 10 -10 6 0 10 5 10 10 0 6 -4 10 -10 10 -5 0
-10 -4 -10 -10z"/>
<path d="M9360 2179 c0 -5 5 -7 10 -4 6 3 10 8 10 11 0 2 -4 4 -10 4 -5 0 -10
-5 -10 -11z"/>
<path d="M7839 1890 c-11 -78 0 -111 21 -60 11 27 11 34 -4 48 -9 9 -16 14
-17 12z"/>
<path d="M6477 1504 c-3 -3 -11 -6 -19 -7 -23 -4 -26 -47 -3 -47 8 0 15 6 15
14 0 8 9 16 19 18 15 2 16 5 6 15 -7 6 -15 9 -18 7z"/>
</g>
</svg>
